<?xml version="1.0" encoding="UTF-8"?>
<svg version="1.1" xmlns="http://www.w3.org/2000/svg" width="1536" height="1024">
<path d="M0 0 C1.01545898 0.19867676 2.03091797 0.39735352 3.07714844 0.60205078 C63.20249761 12.62892239 117.33835788 45.0173062 151.69189453 96.40405273 C164.21843941 115.64144159 172.79861815 136.6471623 178 159 C178.24556641 160.00426025 178.24556641 160.00426025 178.49609375 161.02880859 C183.76152894 183.46674263 183.58301707 211.65288314 178 234 C177.70198486 235.22565674 177.70198486 235.22565674 177.39794922 236.47607422 C168.9763304 270.24455778 152.90719814 300.5969039 128.45898438 325.51025391 C126.98307608 327.01728075 125.53013167 328.54418369 124.078125 330.07421875 C91.33175203 364.17415195 45.79839047 384.06809365 0 393 C-1.24088379 393.24991699 -1.24088379 393.24991699 -2.50683594 393.50488281 C-30.08218506 398.80488028 -62.49800884 398.57960557 -90 393 C-91.01545898 392.80132324 -92.03091797 392.60264648 -93.07714844 392.39794922 C-153.20249761 380.37107761 -207.33835788 347.9826938 -241.69189453 296.59594727 C-254.21843941 277.35855841 -262.79861815 256.3528377 -268 234 C-268.16371094 233.33049316 -268.32742188 232.66098633 -268.49609375 231.97119141 C-273.76152894 209.53325737 -273.58301707 181.34711686 -268 159 C-267.70198486 157.77434326 -267.70198486 157.77434326 -267.39794922 156.52392578 C-258.9763304 122.75544222 -242.90719814 92.4030961 -218.45898438 67.48974609 C-216.98307608 65.98271925 -215.53013167 64.45581631 -214.078125 62.92578125 C-181.33175203 28.82584805 -135.79839047 8.93190635 -90 0 C-89.17274414 -0.16661133 -88.34548828 -0.33322266 -87.49316406 -0.50488281 C-59.91781494 -5.80488028 -27.50199116 -5.57960557 0 0 Z " fill="#030201" transform="translate(813,286)"/>
<path d="M0 0 C1.175625 1.00160156 1.175625 1.00160156 2.375 2.0234375 C3.32375 2.81492187 4.2725 3.60640625 5.25 4.421875 C21.33409192 18.21525716 33.96645285 38.68209552 36.375 60.0234375 C38.51259312 91.25805112 32.04011953 116.50725452 11.75 140.49609375 C3.47868227 149.29797298 -7.41597242 157.37579192 -18.625 162.0234375 C-19.945 162.0234375 -21.265 162.0234375 -22.625 162.0234375 C-26.3415312 148.93982616 -24.00115037 133.62464157 -19.625 121.0234375 C-19.295 120.0334375 -18.965 119.0434375 -18.625 118.0234375 C-17.531875 117.8171875 -16.43875 117.6109375 -15.3125 117.3984375 C-11.64476785 116.43729884 -11.64476785 116.43729884 -10.37890625 114.1796875 C-9.34210441 111.82368642 -8.46220782 109.45718117 -7.625 107.0234375 C-7.33753906 106.31058594 -7.05007813 105.59773437 -6.75390625 104.86328125 C-3.86430001 97.68765619 -3.15352459 90.73344717 -3.625 83.0234375 C-3.955 82.3634375 -4.285 81.7034375 -4.625 81.0234375 C-6.64963255 80.37130458 -6.64963255 80.37130458 -8.625 80.0234375 C-8.79782574 63.64339757 -8.79782574 63.64339757 -8.125 57.3984375 C-6.26401984 41.52998891 -6.26401984 41.52998891 -11.625 27.0234375 C-14.06418918 25.00380531 -16.56769641 23.33271422 -19.2578125 21.6640625 C-21.56792722 20.06299289 -22.5524202 18.9695632 -23.9375 16.5859375 C-27.92561848 10.29040762 -36.45715894 5.76612262 -43.47265625 3.81640625 C-60.53200616 0.04337077 -76.94889037 4.03806426 -91.625 13.0234375 C-90.965 13.6834375 -90.305 14.3434375 -89.625 15.0234375 C-92.66113848 16.68608476 -95.10594728 17.95717545 -98.5625 18.3984375 C-103.6595659 19.43865503 -107.2567875 22.27778707 -110.4375 26.3359375 C-117.54144959 42.4132971 -112.95838641 63.08481995 -111.625 80.0234375 C-112.429375 80.1471875 -113.23375 80.2709375 -114.0625 80.3984375 C-115.3309375 80.7078125 -115.3309375 80.7078125 -116.625 81.0234375 C-120.60028647 88.97401044 -116.16156382 100.17620829 -113.625 108.0234375 C-112.1379892 112.34220747 -112.1379892 112.34220747 -109.625 116.0234375 C-107.29682036 116.39104481 -104.9631615 116.72585331 -102.625 117.0234375 C-98.54930987 131.32303966 -94.54285062 147.24473591 -98.625 162.0234375 C-112.66798215 160.9432081 -126.24232888 147.45628259 -135.05859375 137.2265625 C-139.48117803 131.84949958 -143.12261089 126.02753312 -146.625 120.0234375 C-147.19089844 119.05921875 -147.75679687 118.095 -148.33984375 117.1015625 C-159.28371684 96.94033064 -160.77448029 72.84906018 -155.72265625 50.64453125 C-148.04888339 25.32927344 -131.79495874 4.59037241 -108.63671875 -8.23046875 C-74.85659576 -26.18351274 -30.29819742 -24.77959718 0 0 Z " fill="#F7AE2B" transform="translate(829.625,422.9765625)"/>
<path d="M0 0 C0.99 0.495 0.99 0.495 2 1 C-5.33496217 6.45589321 -12.82933155 11.64787865 -20.38500977 16.79101562 C-26.37535708 20.87382871 -32.32068253 25.01666137 -38.25 29.1875 C-46.4155267 34.92336558 -54.64825357 40.53884566 -63 46 C-63.86753906 46.56847656 -64.73507812 47.13695312 -65.62890625 47.72265625 C-70.73206825 51 -70.73206825 51 -73 51 C-74.98 47.04 -76.96 43.08 -79 39 C-55.80345649 26.39520266 -31.91263754 14.97108717 -7.84301758 4.13500977 C-6.49373169 3.52677368 -6.49373169 3.52677368 -5.1171875 2.90625 C-3.95098877 2.38514648 -3.95098877 2.38514648 -2.76123047 1.85351562 C-1.0185441 1.12786165 -1.0185441 1.12786165 0 0 Z " fill="#E9A52B" transform="translate(934,401)"/>
<path d="M0 0 C2.11776036 3.17664053 2.29465808 4.23408812 2.48657227 7.91113281 C2.54325577 8.90937073 2.59993927 9.90760864 2.65834045 10.93609619 C2.73658302 12.55327545 2.73658302 12.55327545 2.81640625 14.203125 C2.87779282 15.31427673 2.93917938 16.42542847 3.00242615 17.57025146 C3.19769226 21.12976562 3.38066966 24.68977633 3.5625 28.25 C3.74996929 31.79579264 3.94003869 35.34141941 4.13328552 38.88690186 C4.25289378 41.0937693 4.36882952 43.3008397 4.48060608 45.50811768 C4.75730598 50.7331155 5.22388129 55.82162782 6 61 C6.20554168 63.70886029 6.38727936 66.40938708 6.53515625 69.12109375 C6.57813339 69.86585464 6.62111053 70.61061554 6.66539001 71.37794495 C6.80054027 73.73098117 6.93158835 76.08422455 7.0625 78.4375 C7.15402461 80.04363533 7.24581888 81.64975532 7.33789062 83.25585938 C7.56171069 87.17040251 7.78185489 91.08513669 8 95 C3.38 95 -1.24 95 -6 95 C-6.12833826 85.61908434 -5.75178469 76.46237818 -4.88882446 67.12390137 C-4.53253246 63.25453891 -4.19872315 59.38327101 -3.8671875 55.51171875 C-3.7965358 54.68697052 -3.72588409 53.86222229 -3.65309143 53.01248169 C-2.73491156 42.10158333 -2.02709964 31.17577518 -1.3125 20.25 C-1.24606293 19.23622284 -1.17962585 18.22244568 -1.11117554 17.177948 C-0.73666959 11.45222631 -0.36643247 5.72624381 0 0 Z " fill="#EBA229" transform="translate(768,301)"/>
<path d="M0 0 C1.28628107 3.85884322 0.18852206 6.1604636 -1.10546875 9.83203125 C-1.34083344 10.52412186 -1.57619812 11.21621246 -1.81869507 11.92927551 C-2.33152839 13.43527195 -2.84827831 14.93993897 -3.36843872 16.44342041 C-4.7677427 20.49081294 -6.13664436 24.54847562 -7.5078125 28.60546875 C-7.7941304 29.45057007 -8.0804483 30.29567139 -8.3754425 31.16638184 C-11.56502132 40.61232457 -14.57378874 50.11395207 -17.5625 59.625 C-17.94177139 60.82897934 -17.94177139 60.82897934 -18.32870483 62.05728149 C-20.94199036 70.3546256 -23.53866614 78.65601361 -26 87 C-28.47395833 86.25130208 -30.94791667 85.50260417 -33.421875 84.75390625 C-35.60565835 84.11531506 -37.78835498 83.53224167 -40 83 C-39.37351398 78.46901198 -37.57002095 74.73434212 -35.52172852 70.70288086 C-35.16391296 69.98681168 -34.80609741 69.27074249 -34.43743896 68.53297424 C-33.25692981 66.17404044 -32.06798188 63.81946942 -30.87890625 61.46484375 C-30.05505323 59.82273713 -29.23173219 58.18036352 -28.40892029 56.53773499 C-26.24328037 52.21789559 -24.07046141 47.90170644 -21.89611816 43.58624268 C-19.68619069 39.1970334 -17.48301556 34.80443826 -15.27929688 30.41210938 C-11.71933018 23.31854697 -8.15516346 16.22711411 -4.58580017 9.13827515 C-3.0531366 6.09420277 -1.52182958 3.04950556 0 0 Z " fill="#EDA52A" transform="translate(836,317)"/>
<path d="M0 0 C0.495 6.93 0.495 6.93 1 14 C-12.8689162 16.14726518 -26.74418643 16.83918162 -40.75 17.5625 C-44.31661024 17.75091648 -47.88311696 17.94105981 -51.44952393 18.13328552 C-53.65214909 18.25157407 -55.85490219 18.36751434 -58.05780029 18.48060608 C-63.95492141 18.79258875 -69.8245278 19.22039789 -75.70204163 19.79574585 C-78.3711809 20.03299243 -81.0085533 20.10132531 -83.6875 20.0625 C-84.51636719 20.05347656 -85.34523438 20.04445313 -86.19921875 20.03515625 C-87.09060547 20.01775391 -87.09060547 20.01775391 -88 20 C-84.57101891 18.05544917 -81.19130593 17.2344221 -77.35546875 16.37890625 C-76.385205 16.16076515 -76.385205 16.16076515 -75.39533997 15.93821716 C-74.02330214 15.63076154 -72.65070128 15.32580921 -71.27758789 15.02319336 C-69.23136765 14.57216923 -67.18686241 14.11400682 -65.14257812 13.65429688 C-58.57607708 12.18567633 -52.00332237 10.7916592 -45.3984375 9.50390625 C-38.01004797 8.04410544 -30.72985164 6.25074385 -23.4375 4.375 C-21.02009407 3.75561171 -18.60214322 3.13834542 -16.18359375 2.5234375 C-15.13743896 2.25450684 -14.09128418 1.98557617 -13.01342773 1.70849609 C-8.59501578 0.66966992 -4.54763992 0 0 0 Z " fill="#E6A42D" transform="translate(666,505)"/>
<path d="M0 0 C2.35343017 2.35343017 3.24913386 4.47489007 4.6171875 7.51171875 C5.13579346 8.65092773 5.65439941 9.79013672 6.1887207 10.96386719 C6.46334137 11.57081421 6.73796204 12.17776123 7.02090454 12.80310059 C12.81962953 25.59688595 19.08951745 38.07558288 25.67480469 50.484375 C40 77.6779661 40 77.6779661 40 83 C35.71 84.32 31.42 85.64 27 87 C22.33675056 74.03963918 18.04797635 61.0418045 14.23046875 47.80712891 C10.9805344 36.66563034 7.2795506 25.68652136 3.50463867 14.71337891 C3.15534554 13.687192 3.15534554 13.687192 2.79899597 12.64027405 C2.16475756 10.77695909 1.52400134 8.91586631 0.8828125 7.05493164 C0 4 0 4 0 0 Z " fill="#EEA72A" transform="translate(701,317)"/>
<path d="M0 0 C2.55901853 0.9504926 4.87178014 1.91940466 7.1875 3.375 C9.58431573 4.75982687 11.74088061 5.71131672 14.3125 6.6875 C19.63550171 8.75667871 24.6668032 11.27750306 29.75195312 13.86157227 C34.39642157 16.2159086 39.07924007 18.45531103 43.8125 20.625 C48.94388105 22.98486886 53.89787409 25.55237601 58.8203125 28.3203125 C64.01703907 31.06551204 69.367389 33.49488681 74.71582031 35.92919922 C75.51342773 36.29803223 76.31103516 36.66686523 77.1328125 37.046875 C77.85355957 37.37526367 78.57430664 37.70365234 79.31689453 38.04199219 C81 39 81 39 82 41 C80.78515625 43.6015625 80.78515625 43.6015625 79.0625 46.625 C78.49660156 47.62789063 77.93070313 48.63078125 77.34765625 49.6640625 C76.90292969 50.43492187 76.45820312 51.20578125 76 52 C71.72874238 50.49907209 68.15495593 48.2821874 64.4375 45.75 C63.79256592 45.31526367 63.14763184 44.88052734 62.4831543 44.43261719 C52.69948298 37.80627225 43.05955936 30.96950595 33.39746094 24.16796875 C30.82850441 22.36050705 28.25836814 20.55474153 25.6875 18.75 C24.45193359 17.88181641 24.45193359 17.88181641 23.19140625 16.99609375 C17.33295464 12.89424326 11.41344071 8.89482099 5.40307617 5.01855469 C1.1064074 2.2128148 1.1064074 2.2128148 0 0 Z " fill="#F1B034" transform="translate(601,400)"/>
<path d="M0 0 C4.23769628 3.5458275 8.22558056 7.18119203 12.09204102 11.12524414 C13.90982641 12.91139565 15.78375129 14.56985588 17.72265625 16.22265625 C22.73689779 20.58133577 27.3505303 25.29878284 32 30.0390625 C35.84487645 33.9289961 39.78816496 37.6066186 43.92919922 41.17822266 C47.76504743 44.55279226 51.4163729 48.11046402 55.0625 51.6875 C55.84560547 52.43322266 56.62871094 53.17894531 57.43554688 53.94726562 C58.16966797 54.66978516 58.90378906 55.39230469 59.66015625 56.13671875 C60.65994507 57.10677856 60.65994507 57.10677856 61.67993164 58.09643555 C63 60 63 60 62.82421875 62.13500977 C61.70323235 64.67150713 60.19558962 65.67292153 57.9375 67.25 C56.83728516 68.03117187 56.83728516 68.03117187 55.71484375 68.828125 C55.14894531 69.21484375 54.58304688 69.6015625 54 70 C49.47977265 68.46142496 47.29659197 64.77121995 44.625 61.0625 C44.10389648 60.35375732 43.58279297 59.64501465 43.04589844 58.91479492 C41.35670702 56.61506144 39.67837019 54.30763892 38 52 C35.75412917 48.93445867 33.50242616 45.87322684 31.25 42.8125 C30.67580322 42.03092529 30.10160645 41.24935059 29.51000977 40.4440918 C21.83170415 30.01638603 14.05814775 19.6331771 6.00732422 9.48925781 C5.37455566 8.69100586 4.74178711 7.89275391 4.08984375 7.0703125 C3.51999756 6.35891113 2.95015137 5.64750977 2.36303711 4.91455078 C1 3 1 3 0 0 Z " fill="#F1AC30" transform="translate(645,353)"/>
<path d="M0 0 C-3.82349232 2.18772001 -7.96810603 3.22889235 -12.1875 4.375 C-12.98994141 4.59559082 -13.79238281 4.81618164 -14.61914062 5.04345703 C-19.72336201 6.42977639 -24.84402275 7.69770584 -30 8.875 C-37.36005916 10.5566204 -44.64910187 12.46940689 -51.9375 14.4375 C-53.04955811 14.737771 -54.16161621 15.03804199 -55.30737305 15.34741211 C-60.37747764 16.7235355 -65.44118335 18.11776015 -70.4921875 19.5625 C-71.31468994 19.79654541 -72.13719238 20.03059082 -72.98461914 20.27172852 C-74.48556755 20.70099819 -75.98490521 21.13596054 -77.48217773 21.57788086 C-81.0802328 22.6082111 -84.2522242 23.23921973 -88 23 C-88.33872513 21.58461283 -88.67074624 20.16762037 -89 18.75 C-89.185625 17.96109375 -89.37125 17.1721875 -89.5625 16.359375 C-90 14 -90 14 -90 10 C-76.11912756 7.83199159 -62.21673512 5.9586597 -48.27026367 4.26513672 C-45.04097202 3.87238171 -41.81246949 3.47354357 -38.58398438 3.07421875 C-11.67325225 -0.2288873 -11.67325225 -0.2288873 0 0 Z " fill="#EFA82A" transform="translate(960,461)"/>
<path d="M0 0 C0 3.98183884 -1.36569618 4.94365658 -3.9375 7.9375 C-8.40957212 13.25940514 -12.60721272 18.72959984 -16.74609375 24.31640625 C-18.09248596 26.12417897 -19.45122398 27.92216078 -20.8125 29.71875 C-27.11539944 38.04865526 -33.22300876 46.49352385 -39.21875 55.046875 C-42.74811706 60.07841069 -46.36226829 65.04626534 -50 70 C-51.44319692 69.09232898 -52.87934106 68.17343894 -54.3125 67.25 C-55.51326172 66.48429687 -55.51326172 66.48429687 -56.73828125 65.703125 C-59.01563829 63.98822401 -60.35065889 62.29870434 -62 60 C-58.16216306 56.13723706 -54.32089514 52.27792917 -50.4765625 48.42163086 C-49.17225416 47.11232826 -47.86884892 45.80212531 -46.56640625 44.4909668 C-34.12452916 31.96798851 -34.12452916 31.96798851 -27.94091797 26.72045898 C-23.52488902 22.80602427 -19.45409755 18.51263603 -15.3125 14.3125 C-13.47766292 12.45205459 -11.64050281 10.59389673 -9.80078125 8.73828125 C-8.99809814 7.92399658 -8.19541504 7.10971191 -7.3684082 6.27075195 C-5.01784274 4.01710703 -2.57329046 1.9930079 0 0 Z " fill="#EEA82B" transform="translate(891,354)"/>
<path d="M0 0 C20.59750545 1.66866464 41.1544534 3.73819594 61.6875 6.0625 C62.78555466 6.18535873 62.78555466 6.18535873 63.90579224 6.31069946 C72.65324837 7.29276925 81.32939477 8.46989319 90 10 C89.67 14.62 89.34 19.24 89 24 C76.95972566 21.21443397 64.9691976 18.26360253 53 15.1875 C52.15670135 14.97134033 51.31340271 14.75518066 50.44454956 14.5324707 C37.8750076 11.30755582 25.35527662 7.94556954 12.87890625 4.375 C8.6065391 3.15503794 4.31710746 2.05024369 0 1 C0 0.67 0 0.34 0 0 Z " fill="#EEAB2E" transform="translate(578,461)"/>
<path d="M0 0 C7.98501305 1.25394279 15.78328028 2.80232498 23.625 4.75 C25.8148543 5.2848782 28.00496733 5.81869799 30.1953125 6.3515625 C31.31325195 6.62387695 32.43119141 6.89619141 33.58300781 7.17675781 C39.21272977 8.53310409 44.85588267 9.83009029 50.5 11.125 C57.83924612 12.80938147 65.17417605 14.50817244 72.5 16.25 C78.30935275 17.62877346 84.13020865 18.90392103 90 20 C90 20.33 90 20.66 90 21 C82.27130679 21.21538234 74.68758247 20.62112581 66.99697876 19.88909912 C63.28154253 19.53611318 59.56471264 19.19872121 55.84765625 18.86328125 C55.06293442 18.7924231 54.27821259 18.72156494 53.4697113 18.64855957 C42.02905357 17.62965192 30.57105656 16.82289869 19.11474609 16.00268555 C18.29184586 15.94289017 17.46894562 15.88309479 16.62110901 15.82148743 C15.08866077 15.71019526 13.55606621 15.6008905 12.02330017 15.49406433 C7.64080453 15.17471504 3.33938273 14.66792494 -1 14 C-0.67 9.38 -0.34 4.76 0 0 Z " fill="#EDA52A" transform="translate(872,505)"/>
<path d="M0 0 C1.98 4.29 3.96 8.58 6 13 C-8.58082737 20.09856069 -23.14938047 27.18919985 -37.98046875 33.75390625 C-41.83866852 35.46560401 -45.66596233 37.23697425 -49.48828125 39.02734375 C-50.59067139 39.54143799 -51.69306152 40.05553223 -52.82885742 40.58520508 C-54.99208822 41.5957596 -57.15251944 42.61233329 -59.30981445 43.63549805 C-60.76907349 44.3147937 -60.76907349 44.3147937 -62.2578125 45.0078125 C-63.1255127 45.41660645 -63.99321289 45.82540039 -64.88720703 46.24658203 C-65.58442871 46.49520996 -66.28165039 46.74383789 -67 47 C-67.66 46.67 -68.32 46.34 -69 46 C-58.39588113 38.48459763 -47.7175948 31.1053169 -36.875 23.9375 C-28.64962609 18.49808667 -20.55961628 12.9194907 -12.61865234 7.07202148 C-3.0025475 0 -3.0025475 0 0 0 Z " fill="#EEAB2E" transform="translate(675,538)"/>
<path d="M0 0 C4.24493137 1.52402611 7.95398582 3.66439866 11.75 6.0625 C12.42466309 6.48660156 13.09932617 6.91070313 13.79443359 7.34765625 C28.53897134 16.71546316 42.93494827 26.68249047 57.09765625 36.90625 C61.36530621 39.98493153 65.68069996 42.99440412 70 46 C69.01 46.495 69.01 46.495 68 47 C65.48546689 45.93881208 63.09160731 44.81189911 60.66015625 43.58203125 C59.91433289 43.21330902 59.16850952 42.84458679 58.40008545 42.46469116 C56.79050951 41.66863123 55.18256662 40.86926278 53.57608032 40.06698608 C49.36706681 37.96633752 45.14532393 35.89175353 40.921875 33.8203125 C40.07708084 33.40575302 39.23228668 32.99119354 38.3618927 32.56407166 C29.87144762 28.41619745 21.271319 24.55784771 12.60375977 20.79418945 C6.297071 18.05230594 0.11616653 15.14528856 -6 12 C-2.11764706 2.11764706 -2.11764706 2.11764706 0 0 Z " fill="#F0AA30" transform="translate(864,539)"/>
<path d="M0 0 C-4.11342413 2.16477855 -8.29116582 3.3718636 -12.75 4.625 C-13.5234375 4.85445313 -14.296875 5.08390625 -15.09375 5.3203125 C-20.22951735 6.76797846 -24.66619861 7.23137495 -30 7 C-30 6.34 -30 5.68 -30 5 C-30.71800781 5.144375 -31.43601562 5.28875 -32.17578125 5.4375 C-42.15999307 7.22794396 -51.88721581 7.19221765 -62 7 C-62 6.67 -62 6.34 -62 6 C-56.39947759 5.302385 -50.79847572 4.60879422 -45.19702148 3.91870117 C-43.29714978 3.68409154 -41.39740632 3.4484407 -39.49780273 3.21166992 C-11.85083274 -0.23236927 -11.85083274 -0.23236927 0 0 Z " fill="#CF9732" transform="translate(960,461)"/>
<path d="M0 0 C3.04571277 2.08449699 4.8871246 4.89116989 6.94140625 7.89453125 C7.37501465 8.51690674 7.80862305 9.13928223 8.25537109 9.78051758 C9.55936339 11.66430268 10.84708207 13.55810673 12.12890625 15.45703125 C13.22138672 17.07351563 13.22138672 17.07351563 14.3359375 18.72265625 C19.12890625 26.02436832 19.12890625 26.02436832 19.12890625 29.45703125 C18.7321167 29.02471191 18.33532715 28.59239258 17.92651367 28.14697266 C10.57649335 20.16173921 3.24730879 12.35347594 -4.9921875 5.27734375 C-5.61222656 4.67664063 -6.23226562 4.0759375 -6.87109375 3.45703125 C-6.87109375 2.79703125 -6.87109375 2.13703125 -6.87109375 1.45703125 C-2.50385465 -0.7265883 -2.50385465 -0.7265883 0 0 Z " fill="#E09727" transform="translate(816.87109375,589.54296875)"/>
<path d="M0 0 C2.48937178 2.48937178 3.47213384 4.93608611 4.93359375 8.14453125 C5.21219742 8.75133224 5.49080109 9.35813324 5.77784729 9.98332214 C6.66861649 11.92448337 7.55352513 13.86823637 8.4375 15.8125 C9.31842223 17.74580236 10.20067815 19.67845317 11.08644104 21.60954285 C11.89345108 23.36948728 12.69575132 25.1315891 13.49780273 26.89379883 C14.92606254 30.00142982 14.92606254 30.00142982 16.74243164 32.7331543 C17.1574292 33.48121338 17.57242676 34.22927246 18 35 C17.1875 37.8125 17.1875 37.8125 16 40 C15.34 40 14.68 40 14 40 C13.67 40.99 13.34 41.98 13 43 C12.731875 42.11183594 12.46375 41.22367187 12.1875 40.30859375 C9.24505064 30.68435905 6.01490327 21.18510411 2.59179688 11.72045898 C2.25599609 10.77630127 1.92019531 9.83214355 1.57421875 8.859375 C1.27088623 8.01858398 0.96755371 7.17779297 0.6550293 6.31152344 C0 4 0 4 0 0 Z " fill="#E1A237" transform="translate(701,317)"/>
<path d="M0 0 C2.76276177 0.52268466 5.3260876 1.10869587 8 2 C6.6317614 5.11781743 5.11820638 7.05875985 2.5859375 9.3203125 C1.57273437 10.24058228 1.57273437 10.24058228 0.5390625 11.17944336 C-0.17507813 11.82147705 -0.88921875 12.46351074 -1.625 13.125 C-7.72173064 18.70527768 -13.17788452 24.25855566 -18 31 C-18.66 30.67 -19.32 30.34 -20 30 C-19.21625 29.01 -18.4325 28.02 -17.625 27 C-13.49346152 21.51095602 -9.96687155 15.64831199 -6.3671875 9.8046875 C-4.31791574 6.48403082 -2.18528292 3.23260745 0 0 Z " fill="#E29925" transform="translate(720,589)"/>
<path d="M0 0 C2.41573253 3.62359879 2.38400942 5.6882867 2.6328125 10.01171875 C2.67437469 10.69877396 2.71593689 11.38582916 2.75875854 12.09370422 C2.84516656 13.54847263 2.92726557 15.00350246 3.00537109 16.45874023 C3.12366089 18.66255148 3.25392287 20.86537937 3.38671875 23.06835938 C3.77476572 29.72152664 4.0434469 36.33552223 4 43 C3.67 43 3.34 43 3 43 C2.34 40.03 1.68 37.06 1 34 C0.01 41.92 -0.98 49.84 -2 58 C-2.33 58 -2.66 58 -3 58 C-3.31644488 45.85349777 -2.35090926 33.79534869 -1.5 21.6875 C-1.35506463 19.57880378 -1.21053016 17.47007996 -1.06640625 15.36132812 C-0.71555825 10.24055559 -0.35928901 5.12018692 0 0 Z " fill="#CA933C" transform="translate(768,301)"/>
<path d="M0 0 C5.39076197 2.87507305 10.22000281 6.26776177 15.1328125 9.89453125 C19.36910461 13.00537791 23.68266002 16.00314795 28 19 C27.34 19.33 26.68 19.66 26 20 C23.76130597 19.11186486 21.65261978 18.16525395 19.49609375 17.10546875 C18.85761002 16.79805252 18.21912628 16.49063629 17.56129456 16.17390442 C16.21030078 15.52107293 14.86121797 14.86427439 13.51391602 14.20385742 C11.44722161 13.1922585 9.37369685 12.19587749 7.29882812 11.20117188 C5.98914754 10.56600197 4.67988798 9.92996303 3.37109375 9.29296875 C2.74818954 8.99392136 2.12528534 8.69487396 1.48350525 8.38676453 C-2.88471689 6.23056621 -2.88471689 6.23056621 -4 4 C-3.34 4 -2.68 4 -2 4 C-1.34 2.68 -0.68 1.36 0 0 Z " fill="#E6A430" transform="translate(906,566)"/>
<path d="M0 0 C0.33 0.66 0.66 1.32 1 2 C1.66 2 2.32 2 3 2 C3 3.98 3 5.96 3 8 C2.01 8.495 2.01 8.495 1 9 C0.48977847 17.56038342 1.19882823 25.36914115 2.875 33.75 C3.04870117 34.63139648 3.22240234 35.51279297 3.40136719 36.42089844 C4.25001423 41.18698524 4.25001423 41.18698524 7 45 C7.46960522 46.46322113 7.87784909 47.94651078 8.25 49.4375 C9.9479878 55.46403702 12.84251777 60.62512734 16 66 C15.01 66.495 15.01 66.495 14 67 C11.96352023 63.28499653 9.9432803 59.56268578 7.96484375 55.81640625 C7.630896 55.18420166 7.29694824 54.55199707 6.95288086 53.90063477 C5.33330192 50.67019099 4.08056388 47.44227536 3 44 C2.65066406 43.12859375 2.30132813 42.2571875 1.94140625 41.359375 C-2.24062095 29.60918092 -3.9805253 11.94157591 0 0 Z " fill="#E2B94B" transform="translate(673,483)"/>
<path d="M0 0 C9.35989156 -0.76062324 19.51727055 0.73176343 27 6.8125 C29.68859219 9.42162641 31.73988917 12.34954176 33.80078125 15.46484375 C35.4819526 17.61696212 37.65552751 18.66030144 40 20 C40 20.99 40 21.98 40 23 C39.4121875 22.319375 39.4121875 22.319375 38.8125 21.625 C37.0677155 19.85744907 37.0677155 19.85744907 34.625 19.13671875 C31.70884582 17.87391984 30.31039644 16.52492071 28.1875 14.1875 C21.75095883 7.49592606 14.5832024 3.0542074 5.1875 2.375 C4.21167969 2.30023438 3.23585938 2.22546875 2.23046875 2.1484375 C1.49441406 2.09945313 0.75835938 2.05046875 0 2 C0 1.34 0 0.68 0 0 Z " fill="#D29637" transform="translate(773,431)"/>
<path d="M0 0 C2 1 2 1 2.62182617 2.84350586 C4.00083192 9.78308601 4.34907311 16.496052 4.3125 23.5625 C4.30686035 24.70565674 4.3012207 25.84881348 4.29541016 27.02661133 C4.0776639 42.3281364 1.26347106 55.07441872 -5 69 C-6.63326856 64.97127089 -5.23413509 62.33676312 -3.6875 58.4375 C2.1171809 43.0140886 2.95365317 26.28828909 1 10 C0.8098801 8.08359144 0.6222326 6.16693537 0.4375 4.25 C0.29270401 2.83322693 0.14729256 1.41651569 0 0 Z " fill="#EABB4C" transform="translate(862,472)"/>
<path d="M0 0 C2.55901853 0.9504926 4.87178014 1.91940466 7.1875 3.375 C9.64861761 4.79697906 11.92156481 5.79578214 14.5625 6.8125 C20.57662547 9.14376734 26.27132602 12.04707527 32 15 C29.94766315 17.2477975 28.99332739 18.0022242 26 19 C23.91870117 17.8918457 23.91870117 17.8918457 21.54296875 16.17578125 C20.67736328 15.55896484 19.81175781 14.94214844 18.91992188 14.30664062 C17.56737305 13.31954102 17.56737305 13.31954102 16.1875 12.3125 C14.41047597 11.03731476 12.6331398 9.76256436 10.85546875 8.48828125 C9.6012915 7.58070068 9.6012915 7.58070068 8.32177734 6.65478516 C6.3612277 5.25745545 4.38199791 3.91630063 2.36328125 2.60546875 C1.58339844 2.07566406 0.80351563 1.54585938 0 1 C0 0.67 0 0.34 0 0 Z " fill="#EDAA34" transform="translate(601,400)"/>
<path d="M0 0 C1.32784412 3.98353235 0.05036338 6.50827496 -1.30859375 10.29296875 C-1.67695091 11.35201164 -1.67695091 11.35201164 -2.05274963 12.43244934 C-2.83919339 14.68720422 -3.63815596 16.93729014 -4.4375 19.1875 C-4.97283547 20.7152041 -5.50735095 22.24319582 -6.04101562 23.77148438 C-7.35118472 27.51772683 -8.67259848 31.25983057 -10 35 C-10.144375 34.360625 -10.28875 33.72125 -10.4375 33.0625 C-10.81007181 31.02454854 -10.81007181 31.02454854 -12 30 C-12.66 30 -13.32 30 -14 30 C-12.72808985 25.98381149 -11.25481537 22.21540255 -9.43359375 18.41796875 C-8.94826172 17.40412109 -8.46292969 16.39027344 -7.96289062 15.34570312 C-7.45951172 14.30349609 -6.95613281 13.26128906 -6.4375 12.1875 C-5.93025391 11.12595703 -5.42300781 10.06441406 -4.90039062 8.97070312 C-1.13585283 1.13585283 -1.13585283 1.13585283 0 0 Z " fill="#CE9230" transform="translate(836,317)"/>
<path d="M0 0 C4.26319402 3.56716234 8.2711146 7.22690266 12.16015625 11.1953125 C14.78962976 13.77454129 17.58413176 16.14530034 20.3984375 18.51953125 C22 20 22 20 23 22 C22.01 22 21.02 22 20 22 C20.33 23.98 20.66 25.96 21 28 C18.24558347 25.3507282 15.89019168 22.6542339 13.65234375 19.55859375 C13.04712891 18.72779297 12.44191406 17.89699219 11.81835938 17.04101562 C11.19767578 16.18185547 10.57699219 15.32269531 9.9375 14.4375 C8.69901938 12.72612172 7.45822333 11.01641608 6.21484375 9.30859375 C5.66948975 8.55376709 5.12413574 7.79894043 4.56225586 7.02124023 C3.06499038 4.98395442 3.06499038 4.98395442 1.29907227 3.35571289 C0 2 0 2 0 0 Z " fill="#E7AB3E" transform="translate(645,353)"/>
<path d="M0 0 C0 4.00129336 -1.41373017 4.99433507 -4 8 C-8.61649456 13.47980099 -12.85386529 19.15925982 -17 25 C-17.66 23.68 -18.32 22.36 -19 21 C-19.99 21 -20.98 21 -22 21 C-19.27501963 18.24582502 -16.54428688 15.49742262 -13.8125 12.75 C-13.04357422 11.97269531 -12.27464844 11.19539063 -11.48242188 10.39453125 C-7.80552676 6.70185547 -4.18873492 3.12266411 0 0 Z " fill="#D1962E" transform="translate(891,354)"/>
<path d="M0 0 C8.61408282 0.6918942 17.21855285 1.47214333 25.8203125 2.30224609 C27.89303752 2.50173603 29.9660414 2.69814491 32.0390625 2.89453125 C33.37762228 3.02324931 34.71616461 3.15214894 36.0546875 3.28125 C37.24562012 3.39533203 38.43655273 3.50941406 39.66357422 3.62695312 C42.80184817 3.97784458 45.89132461 4.44866119 49 5 C49 5.33 49 5.66 49 6 C48.20303711 5.96447021 47.40607422 5.92894043 46.58496094 5.89233398 C42.97354056 5.73470933 39.36180636 5.58600574 35.75 5.4375 C33.86861328 5.35338867 33.86861328 5.35338867 31.94921875 5.26757812 C30.74394531 5.21923828 29.53867187 5.17089844 28.296875 5.12109375 C27.18666992 5.0739624 26.07646484 5.02683105 24.93261719 4.97827148 C22.10719992 4.87915302 22.10719992 4.87915302 19.87695312 5.5546875 C17.47932977 6.1235305 16.02540319 5.69315379 13.671875 5.00390625 C12.47304688 4.66069336 12.47304688 4.66069336 11.25 4.31054688 C10.425 4.06369141 9.6 3.81683594 8.75 3.5625 C7.48929688 3.19801758 7.48929688 3.19801758 6.203125 2.82617188 C4.13284266 2.22626051 2.06606103 1.61429181 0 1 C0 0.67 0 0.34 0 0 Z " fill="#E0AB40" transform="translate(578,461)"/>
<path d="M0 0 C0.33 0.66 0.66 1.32 1 2 C1.99 2 2.98 2 4 2 C5.3503418 3.51293945 5.3503418 3.51293945 6.69921875 5.61328125 C7.18583984 6.36673828 7.67246094 7.12019531 8.17382812 7.89648438 C8.67333984 8.69376953 9.17285156 9.49105469 9.6875 10.3125 C10.19861328 11.09818359 10.70972656 11.88386719 11.23632812 12.69335938 C15 18.59765103 15 18.59765103 15 22 C12.50470811 19.45278813 10.03185793 16.88484113 7.5625 14.3125 C6.85544922 13.59126953 6.14839844 12.87003906 5.41992188 12.12695312 C4.74638672 11.42119141 4.07285156 10.71542969 3.37890625 9.98828125 C2.7557251 9.34415283 2.13254395 8.70002441 1.49047852 8.03637695 C-0.24185603 5.66956247 -0.71611116 3.90166855 -1 1 C-0.67 0.67 -0.34 0.34 0 0 Z " fill="#EAAB39" transform="translate(821,597)"/>
<path d="M0 0 C0.66 0.33 1.32 0.66 2 1 C1.67 1.66 1.34 2.32 1 3 C1.66 3.66 2.32 4.32 3 5 C1.98679687 5.47050781 0.97359375 5.94101562 -0.0703125 6.42578125 C-1.42189575 7.0546429 -2.77345709 7.68355166 -4.125 8.3125 C-4.79015625 8.62123047 -5.4553125 8.92996094 -6.140625 9.24804688 C-6.79804687 9.55419922 -7.45546875 9.86035156 -8.1328125 10.17578125 C-8.78411133 10.47822754 -9.43541016 10.78067383 -10.10644531 11.09228516 C-11.88392387 11.94435649 -13.62731807 12.86651856 -15.3671875 13.79296875 C-16.23601563 14.19128906 -17.10484375 14.58960938 -18 15 C-18.66 14.67 -19.32 14.34 -20 14 C-13.4 9.38 -6.8 4.76 0 0 Z " fill="#E2A737" transform="translate(626,570)"/>
<path d="M0 0 C4.27295885 0.78046947 8.54291881 1.57627646 12.8125 2.375 C14.63491211 2.70757813 14.63491211 2.70757813 16.49414062 3.046875 C18.23920898 3.37558594 18.23920898 3.37558594 20.01953125 3.7109375 C21.09307861 3.90993652 22.16662598 4.10893555 23.27270508 4.31396484 C26 5 26 5 29 7 C22.05033907 7.1346906 15.28143617 6.75715004 8.375 6 C7.01181641 5.85691406 7.01181641 5.85691406 5.62109375 5.7109375 C3.41352957 5.47856232 1.20657739 5.24153511 -1 5 C-1 4.67 -1 4.34 -1 4 C0.65 4 2.3 4 4 4 C4 3.34 4 2.68 4 2 C2.68 2 1.36 2 0 2 C0 1.34 0 0.68 0 0 Z " fill="#D09A39" transform="translate(933,519)"/>
<path d="M0 0 C0 0.66 0 1.32 0 2 C2.31 2.33 4.62 2.66 7 3 C7 3.33 7 3.66 7 4 C3.37566012 4.34077314 -0.24955391 4.6712218 -3.875 5 C-4.88820313 5.09539063 -5.90140625 5.19078125 -6.9453125 5.2890625 C-13.31787113 5.86095879 -19.60250235 6.12770164 -26 6 C-23.29264156 4.54669607 -20.80941256 3.59498571 -17.8125 2.9296875 C-16.64074219 2.66865234 -16.64074219 2.66865234 -15.4453125 2.40234375 C-14.63835938 2.22832031 -13.83140625 2.05429687 -13 1.875 C-12.19304688 1.69324219 -11.38609375 1.51148438 -10.5546875 1.32421875 C-6.87632285 0.5169209 -3.80445526 0 0 0 Z " fill="#CF9E3B" transform="translate(604,519)"/>
<path d="M0 0 C-8.85452843 4.81269663 -19.11610865 5.53768895 -29 6 C-28.67 5.01 -28.34 4.02 -28 3 C-25.69 3 -23.38 3 -21 3 C-21 2.34 -21 1.68 -21 1 C-13.98441385 0.4011085 -7.04321257 -0.13810221 0 0 Z " fill="#F2B031" transform="translate(960,461)"/>
<path d="M0 0 C0.9590625 0.09023438 1.918125 0.18046875 2.90625 0.2734375 C5.5 0.625 5.5 0.625 8.5 1.625 C8.5 2.285 8.5 2.945 8.5 3.625 C9.82 3.625 11.14 3.625 12.5 3.625 C12.5 4.285 12.5 4.945 12.5 5.625 C8.87 5.625 5.24 5.625 1.5 5.625 C1.5 4.965 1.5 4.305 1.5 3.625 C-0.15614657 3.24281233 -1.82457024 2.91104898 -3.5 2.625 C-3.83 2.955 -4.16 3.285 -4.5 3.625 C-6.16617115 3.66563832 -7.83388095 3.667721 -9.5 3.625 C-9.17 2.635 -8.84 1.645 -8.5 0.625 C-5.24544362 -0.45985213 -3.38029285 -0.33621192 0 0 Z " fill="#FABD3B" transform="translate(924.5,517.375)"/>
<path d="M0 0 C0.66 0.33 1.32 0.66 2 1 C-3.83405626 5.34653016 -9.5733894 9.57247434 -16 13 C-17.32 12.01 -18.64 11.02 -20 10 C-19.42967041 9.7326001 -18.85934082 9.4652002 -18.27172852 9.18969727 C-15.70093338 7.98285833 -13.13170278 6.7727249 -10.5625 5.5625 C-9.66466797 5.14162109 -8.76683594 4.72074219 -7.84179688 4.28710938 C-6.98779297 3.88427734 -6.13378906 3.48144531 -5.25390625 3.06640625 C-4.46314697 2.69459229 -3.6723877 2.32277832 -2.85766602 1.93969727 C-1.03502006 1.13895211 -1.03502006 1.13895211 0 0 Z " fill="#D49C34" transform="translate(934,401)"/>
<path d="M0 0 C2.33877753 1.55611576 3.33000524 3.02667569 4.734375 5.4453125 C5.37632812 6.53199219 5.37632812 6.53199219 6.03125 7.640625 C6.50304687 8.47207031 6.50304687 8.47207031 6.984375 9.3203125 C5.994375 10.3103125 5.004375 11.3003125 3.984375 12.3203125 C2.66964553 10.69711575 1.35765838 9.0716975 0.046875 7.4453125 C-0.68402344 6.54039062 -1.41492188 5.63546875 -2.16796875 4.703125 C-4.015625 2.3203125 -4.015625 2.3203125 -5.015625 0.3203125 C-2.015625 -0.6796875 -2.015625 -0.6796875 0 0 Z " fill="#201005" transform="translate(803.015625,435.6796875)"/>
<path d="M0 0 C1.32 0.33 2.64 0.66 4 1 C2.65285534 4.03767912 1.17833297 5.99668202 -1.25 8.25 C-4.97531282 11.85035474 -8.00865384 15.78143491 -11 20 C-11.66 19.67 -12.32 19.34 -13 19 C-12.64808594 18.55011719 -12.29617188 18.10023438 -11.93359375 17.63671875 C-7.59080988 11.97862698 -3.76266389 6.05588508 0 0 Z " fill="#D29B35" transform="translate(713,600)"/>
<path d="M0 0 C2.55901853 0.9504926 4.87178014 1.91940466 7.1875 3.375 C10.59360134 5.34296966 14.11339739 6.66152316 17.79296875 8.03515625 C20 9 20 9 22 11 C21.01 11 20.02 11 19 11 C19 11.66 19 12.32 19 13 C15.05756555 11.17277597 11.46342721 8.83928397 7.8125 6.5 C7.17119141 6.09652344 6.52988281 5.69304687 5.86914062 5.27734375 C1.11874636 2.23749272 1.11874636 2.23749272 0 0 Z " fill="#C38F3D" transform="translate(601,400)"/>
<path d="M0 0 C0.33 0 0.66 0 1 0 C2.15040077 8.09031843 2.90961851 15.03408024 -2 22 C-2.99 22.66 -3.98 23.32 -5 24 C-4.72285156 22.9378125 -4.44570313 21.875625 -4.16015625 20.78125 C-3.79401364 19.35423263 -3.42814278 17.92714552 -3.0625 16.5 C-2.88009766 15.80390625 -2.69769531 15.1078125 -2.50976562 14.390625 C-1.29034434 9.60162506 -0.52577635 4.91462529 0 0 Z " fill="#D09230" transform="translate(827,508)"/>
<path d="M0 0 C2.70777129 2.70777129 4.10646344 5.90524732 5.75 9.3125 C6.09160156 9.97701172 6.43320312 10.64152344 6.78515625 11.32617188 C8.36551521 14.61370872 9.16300069 16.39034544 8.203125 19.98046875 C7.80609375 20.64691406 7.4090625 21.31335938 7 22 C4.78016081 18.67024121 3.61590228 15.32488685 2.375 11.5625 C2.14554688 10.89412109 1.91609375 10.22574219 1.6796875 9.53710938 C0.54959381 6.14346494 0 3.61886355 0 0 Z " fill="#C28C3B" transform="translate(701,317)"/>
<path d="M0 0 C1.12018319 3.36054957 0.90181274 4.01723271 -0.21484375 7.23046875 C-0.48876953 8.03291016 -0.76269531 8.83535156 -1.04492188 9.66210938 C-1.48674805 10.91217773 -1.48674805 10.91217773 -1.9375 12.1875 C-2.22818359 13.03248047 -2.51886719 13.87746094 -2.81835938 14.74804688 C-3.53757537 16.83495229 -4.2650343 18.91859994 -5 21 C-5.99 20.01 -6.98 19.02 -8 18 C-6.65150163 13.64029169 -4.95092154 9.68658562 -2.875 5.625 C-2.33617187 4.56539063 -1.79734375 3.50578125 -1.2421875 2.4140625 C-0.83226562 1.61742187 -0.42234375 0.82078125 0 0 Z " fill="#BE8836" transform="translate(836,317)"/>
<path d="M0 0 C0.66 0 1.32 0 2 0 C5.62870159 9.41002278 5.62870159 9.41002278 4 14 C3.34 14 2.68 14 2 14 C1.46658816 12.42085985 0.94874237 10.83645613 0.4375 9.25 C0.14746094 8.36828125 -0.14257812 7.4865625 -0.44140625 6.578125 C-1.01697435 3.92165684 -0.89248371 2.52968894 0 0 Z " fill="#F0A72C" transform="translate(712,342)"/>
<path d="M0 0 C0 0.66 0 1.32 0 2 C0.99 2.33 1.98 2.66 3 3 C-3.6 3 -10.2 3 -17 3 C-17 2.67 -17 2.34 -17 2 C-15.02 2 -13.04 2 -11 2 C-11 1.34 -11 0.68 -11 0 C-3.375 -1.125 -3.375 -1.125 0 0 Z " fill="#F9BA33" transform="translate(615,519)"/>
<path d="M0 0 C0.65234375 1.765625 0.65234375 1.765625 1 4 C0.00390625 5.921875 0.00390625 5.921875 -1.4375 7.75 C-1.91058594 8.36359375 -2.38367188 8.9771875 -2.87109375 9.609375 C-3.24363281 10.06828125 -3.61617187 10.5271875 -4 11 C-4.66 9.68 -5.32 8.36 -6 7 C-6.99 7 -7.98 7 -9 7 C-8.06894211 6.01470572 -7.12987519 5.03697556 -6.1875 4.0625 C-5.66542969 3.51722656 -5.14335938 2.97195313 -4.60546875 2.41015625 C-3 1 -3 1 0 0 Z " fill="#DF9931" transform="translate(878,368)"/>
<path d="M0 0 C0.33 0.66 0.66 1.32 1 2 C1.66 2 2.32 2 3 2 C3 3.98 3 5.96 3 8 C2.01 8.495 2.01 8.495 1 9 C0.52998967 12.27555608 0.52998967 12.27555608 0.375 16.0625 C0.30023437 17.35285156 0.22546875 18.64320313 0.1484375 19.97265625 C0.09945312 20.97167969 0.05046875 21.97070312 0 23 C-0.33 23 -0.66 23 -1 23 C-1.02902429 19.72918529 -1.04680684 16.4584037 -1.0625 13.1875 C-1.07087891 12.25873047 -1.07925781 11.32996094 -1.08789062 10.37304688 C-1.09111328 9.48037109 -1.09433594 8.58769531 -1.09765625 7.66796875 C-1.10289307 6.84578857 -1.10812988 6.0236084 -1.11352539 5.17651367 C-1 3 -1 3 0 0 Z " fill="#F9D154" transform="translate(673,483)"/>
<path d="M0 0 C0 0.66 0 1.32 0 2 C-1.4609375 3.2890625 -1.4609375 3.2890625 -3.375 4.625 C-4.00148438 5.07101562 -4.62796875 5.51703125 -5.2734375 5.9765625 C-7 7 -7 7 -9 7 C-8.125 3.125 -8.125 3.125 -7 2 C-7.66 1.34 -8.32 0.68 -9 0 C-5.52176885 -1.15941038 -3.54104422 -0.70820884 0 0 Z " fill="#DC9F36" transform="translate(918,413)"/>
<path d="M0 0 C0.99 0.495 0.99 0.495 2 1 C3.86360591 6.90141871 4.22742222 12.85959995 4 19 C1.42994819 16.42994819 1.42826712 14.74860822 0.875 11.1875 C0.70742188 10.14980469 0.53984375 9.11210937 0.3671875 8.04296875 C0.03868319 5.32057663 -0.07084083 2.73749219 0 0 Z " fill="#D6AC47" transform="translate(862,472)"/>
<path d="M0 0 C-3.0469629 1.69433918 -5.82821466 2.49467112 -9.25 3.125 C-10.58804688 3.37636719 -10.58804688 3.37636719 -11.953125 3.6328125 C-12.96632813 3.81457031 -12.96632813 3.81457031 -14 4 C-14 3.34 -14 2.68 -14 2 C-16.31 2 -18.62 2 -21 2 C-21 1.67 -21 1.34 -21 1 C-13.98441385 0.4011085 -7.04321257 -0.13810221 0 0 Z " fill="#BA893D" transform="translate(960,461)"/>
<path d="M0 0 C6.40353322 -0.2361959 11.84629161 0.176679 18 2 C17.34 2.66 16.68 3.32 16 4 C13.23286597 3.81864449 10.6080224 3.5356614 7.875 3.125 C7.12089844 3.02058594 6.36679687 2.91617187 5.58984375 2.80859375 C3.72515844 2.54895402 1.86237113 2.27574971 0 2 C0 1.34 0 0.68 0 0 Z " fill="#A57636" transform="translate(773,431)"/>
<path d="M0 0 C4.67105792 1.55701931 8.08705685 4.08447373 12 7 C11.01 7.495 11.01 7.495 10 8 C7.3984375 6.78515625 7.3984375 6.78515625 4.375 5.0625 C3.37210938 4.49660156 2.36921875 3.93070313 1.3359375 3.34765625 C0.56507813 2.90292969 -0.20578125 2.45820312 -1 2 C-0.67 1.34 -0.34 0.68 0 0 Z " fill="#DFA848" transform="translate(922,578)"/>
<path d="M0 0 C0.66 0 1.32 0 2 0 C1.25 7.625 1.25 7.625 -1 11 C-1 9.02 -1 7.04 -1 5 C-1.99 5.33 -2.98 5.66 -4 6 C-3.67 4.68 -3.34 3.36 -3 2 C-2.01 2 -1.02 2 0 2 C0 1.34 0 0.68 0 0 Z " fill="#DA9B35" transform="translate(826,341)"/>
<path d="M0 0 C-0.33 0.99 -0.66 1.98 -1 3 C-7.0546875 3.1953125 -7.0546875 3.1953125 -9 3 C-9.66 2.34 -10.32 1.68 -11 1 C-6.92630576 -1.03684712 -4.41062136 -1.0257259 0 0 Z " fill="#EAAC3A" transform="translate(927,520)"/>
<path d="M0 0 C0.66 0.33 1.32 0.66 2 1 C-3.445 4.96 -3.445 4.96 -9 9 C-9.33 8.34 -9.66 7.68 -10 7 C-10.66 6.67 -11.32 6.34 -12 6 C-10.04669132 4.96958487 -8.08718472 3.9509107 -6.125 2.9375 C-5.03445313 2.36902344 -3.94390625 1.80054688 -2.8203125 1.21484375 C-1.42425781 0.61349609 -1.42425781 0.61349609 0 0 Z " fill="#BA8836" transform="translate(934,401)"/>
<path d="M0 0 C0.99 0.33 1.98 0.66 3 1 C3 5.62 3 10.24 3 15 C2.01 15 1.02 15 0 15 C0 10.05 0 5.1 0 0 Z " fill="#DD952C" transform="translate(709,505)"/>
<path d="M0 0 C2.31 0.33 4.62 0.66 7 1 C6.34 2.65 5.68 4.3 5 6 C2.5 4.6875 2.5 4.6875 0 3 C0 2.01 0 1.02 0 0 Z " fill="#DD9B32" transform="translate(620,411)"/>
<path d="M0 0 C-3.32307692 3.93846154 -3.32307692 3.93846154 -6.75 4.25 C-7.4925 4.1675 -8.235 4.085 -9 4 C-9.33 3.01 -9.66 2.02 -10 1 C-6.61981469 -0.04005702 -3.5219721 -0.08004482 0 0 Z " fill="#F1AE31" transform="translate(630,514)"/>
<path d="M0 0 C1.09651823 3.41139003 0.94215473 6.20655581 0.5625 9.75 C0.40974609 11.22726562 0.40974609 11.22726562 0.25390625 12.734375 C0.12822266 13.85585938 0.12822266 13.85585938 0 15 C-0.99 15.33 -1.98 15.66 -3 16 C-2.40984815 10.49191603 -1.43336231 5.35121931 0 0 Z " fill="#CDA844" transform="translate(676,467)"/>
<path d="M0 0 C0.66 0.99 1.32 1.98 2 3 C0.54618103 3.69699552 -0.91322953 4.38233866 -2.375 5.0625 C-3.18710937 5.44535156 -3.99921875 5.82820312 -4.8359375 6.22265625 C-5.55007813 6.47917969 -6.26421875 6.73570312 -7 7 C-7.66 6.67 -8.32 6.34 -9 6 C-6.03 4.02 -3.06 2.04 0 0 Z " fill="#D6A03F" transform="translate(615,578)"/>
<path d="M0 0 C2.375 -0.125 2.375 -0.125 5 0 C5.66 0.66 6.32 1.32 7 2 C8.32 2.66 9.64 3.32 11 4 C7.7 3.67 4.4 3.34 1 3 C0.67 2.01 0.34 1.02 0 0 Z " fill="#ECB53A" transform="translate(599,465)"/>
<path d="M0 0 C0 4.38968456 -2.12805101 5.76905739 -5 9 C-5.99 8.34 -6.98 7.68 -8 7 C-5.36 4.69 -2.72 2.38 0 0 Z " fill="#BC8636" transform="translate(891,354)"/>
<path d="M0 0 C-2.35968744 2.09749995 -3.54616994 2.96905704 -6.75 3.1875 C-7.86375 3.0946875 -7.86375 3.0946875 -9 3 C-8.67 2.01 -8.34 1.02 -8 0 C-4.71023192 -1.09658936 -3.28696233 -0.79953138 0 0 Z " fill="#F9B032" transform="translate(924,518)"/>
<path d="M0 0 C1.32 0.66 2.64 1.32 4 2 C1.1875 3.5625 1.1875 3.5625 -2 5 C-2.99 4.67 -3.98 4.34 -5 4 C-3.35 2.68 -1.7 1.36 0 0 Z " fill="#CB8928" transform="translate(736,436)"/>
<path d="M0 0 C1.12894876 0.93274109 2.25300876 1.87140122 3.375 2.8125 C4.00148438 3.33457031 4.62796875 3.85664063 5.2734375 4.39453125 C7 6 7 6 9 9 C6 9 6 9 4.39453125 7.5390625 C3.61142578 6.59160156 3.61142578 6.59160156 2.8125 5.625 C2.28269531 4.99851562 1.75289062 4.37203125 1.20703125 3.7265625 C0 2 0 2 0 0 Z " fill="#D7AB56" transform="translate(645,353)"/>
<path d="M0 0 C0 3.90838866 -1.50567876 5.11594107 -4 8 C-4.99 7.67 -5.98 7.34 -7 7 C-4.69 4.69 -2.38 2.38 0 0 Z " fill="#CC8F33" transform="translate(703,427)"/>
<path d="M0 0 C1.32 0 2.64 0 4 0 C4 2.64 4 5.28 4 8 C3.34 7.01 2.68 6.02 2 5 C1.34 4.34 0.68 3.68 0 3 C0 2.01 0 1.02 0 0 Z " fill="#CA8F2E" transform="translate(662,505)"/>
<path d="M0 0 C-3.08888522 2.05925681 -3.70935927 2.2390374 -7.1875 2.125 C-9.0746875 2.063125 -9.0746875 2.063125 -11 2 C-6.98764085 -0.6749061 -4.6342454 -1.48957888 0 0 Z " fill="#41240A" transform="translate(936,469)"/>
<path d="M0 0 C2.27521866 2.16687491 4.15794162 4.45620509 6 7 C5.67 7.66 5.34 8.32 5 9 C2.5 6.75 2.5 6.75 0 4 C0 2.68 0 1.36 0 0 Z " fill="#B98B44" transform="translate(831,610)"/>
<path d="M0 0 C1.0625 1.8125 1.0625 1.8125 2 4 C1.67 4.99 1.34 5.98 1 7 C-1.0625 7.6875 -1.0625 7.6875 -3 8 C-2.690625 7.236875 -2.38125 6.47375 -2.0625 5.6875 C-1.32106407 3.81210323 -0.63771783 1.91315348 0 0 Z " fill="#D9972E" transform="translate(861,543)"/>
<path d="M0 0 C1.32 0.33 2.64 0.66 4 1 C3.67 1.33 3.34 1.66 3 2 C2.76924918 3.34747084 2.58846937 4.70377565 2.4375 6.0625 C2.2209375 8.0115625 2.2209375 8.0115625 2 10 C1.67 10 1.34 10 1 10 C0.67 6.7 0.34 3.4 0 0 Z " fill="#D99733" transform="translate(870,471)"/>
<path d="M0 0 C0.33 0 0.66 0 1 0 C0.25 6.75 0.25 6.75 -2 9 C-3 6 -3 6 -1.5625 2.8125 C-1.046875 1.884375 -0.53125 0.95625 0 0 Z " fill="#D6A841" transform="translate(681,456)"/>
</svg>
