<?xml version="1.0" encoding="UTF-8"?>
<svg version="1.1" xmlns="http://www.w3.org/2000/svg" width="411" height="411">
<path d="M0 0 C1.19882812 1.09441406 1.19882812 1.09441406 2.421875 2.2109375 C3.13859375 2.85804688 3.8553125 3.50515625 4.59375 4.171875 C19.68228047 18.50013067 31.34353201 40.14237111 32.59887695 61.17675781 C33.11982128 87.63491837 30.42436958 110.05667099 13.421875 131.2109375 C12.81859375 132.03851563 12.2153125 132.86609375 11.59375 133.71875 C2.5605206 145.82631377 -11.47016959 158.12067389 -26.578125 161.2109375 C-28.36816664 155.81217191 -28.96308571 151.01237023 -28.953125 145.3359375 C-28.95368896 144.51673828 -28.95425293 143.69753906 -28.95483398 142.85351562 C-28.7868551 133.29983138 -26.59068819 124.24862708 -23.578125 115.2109375 C-22.485 114.9840625 -21.391875 114.7571875 -20.265625 114.5234375 C-16.32725187 113.5331763 -16.32725187 113.5331763 -14.390625 109.9609375 C-10.16211301 99.85644131 -7.8550601 90.17742175 -8.578125 79.2109375 C-11.548125 78.7159375 -11.548125 78.7159375 -14.578125 78.2109375 C-14.51753906 77.50187256 -14.45695313 76.79280762 -14.39453125 76.06225586 C-10.2185368 49.05496757 -10.2185368 49.05496757 -17.890625 24.3359375 C-20.55641148 22.1478716 -20.55641148 22.1478716 -23.578125 20.3359375 C-26.578125 18.2109375 -26.578125 18.2109375 -28.578125 14.9609375 C-32.95036399 8.38838343 -42.71265889 3.64528864 -50.203125 1.7109375 C-66.11322745 -0.72099344 -80.32958111 3.519752 -94.578125 10.2109375 C-94.248125 11.2009375 -93.918125 12.1909375 -93.578125 13.2109375 C-96.49773402 15.24581652 -98.37435682 16.18829659 -101.953125 16.5859375 C-106.53518807 17.37594837 -109.3767344 18.83478116 -112.578125 22.2109375 C-122.16477701 38.45900933 -116.97968468 60.40628375 -115.578125 78.2109375 C-116.3825 78.5203125 -117.186875 78.8296875 -118.015625 79.1484375 C-120.46892905 79.97429095 -120.46892905 79.97429095 -121.578125 81.2109375 C-121.96482752 87.54140099 -120.90118786 92.884162 -119.203125 98.9609375 C-118.98140625 99.79753906 -118.7596875 100.63414062 -118.53125 101.49609375 C-117.10482682 107.08036372 -117.10482682 107.08036372 -114.578125 112.2109375 C-112.72855685 113.01005409 -112.72855685 113.01005409 -110.640625 113.41015625 C-108.12115518 114.26383737 -106.90511431 114.69980307 -105.45703125 116.96337891 C-104.63320474 119.30413467 -104.07171893 121.59128947 -103.578125 124.0234375 C-103.38009277 124.89548828 -103.18206055 125.76753906 -102.97802734 126.66601562 C-100.77370253 137.4223573 -99.56856692 150.49946689 -102.578125 161.2109375 C-121.8054343 155.91646103 -136.6097329 141.28143002 -147.578125 125.2109375 C-148.36703125 124.09138672 -148.36703125 124.09138672 -149.171875 122.94921875 C-161.62211816 103.97584287 -165.98923131 79.16211428 -162.359375 56.953125 C-158.28913 37.45665144 -150.50175707 22.32435291 -137.578125 7.2109375 C-136.98386719 6.51355469 -136.38960937 5.81617188 -135.77734375 5.09765625 C-101.68293591 -31.70399985 -36.9294535 -32.01281028 0 0 Z " fill="#F0A92A" transform="translate(269.578125,160.7890625)"/>
<path d="M0 0 C3.006818 1.33999498 4.99762609 2.79845291 7.25 5.1875 C9.59616657 7.66723546 12.05251528 9.92384529 14.640625 12.14453125 C20.37038738 17.11874236 25.61447267 22.56815602 30.93359375 27.97265625 C34.49883516 31.57256775 38.05655821 35.11371065 41.90625 38.41015625 C47.21428925 42.9665326 52.07908882 47.97188393 57 52.9375 C57.97502386 53.9175531 58.9502828 54.8973724 59.92578125 55.87695312 C62.28616618 58.24902313 64.64416905 60.6234086 67 63 C65.35817829 66.53803609 63.65864045 68.39761213 60.5625 70.8125 C59.38880859 71.75029297 59.38880859 71.75029297 58.19140625 72.70703125 C57.46824219 73.13371094 56.74507812 73.56039062 56 74 C52.70245132 72.90081711 52.31775204 72.42847662 50.42578125 69.703125 C49.93142578 69.00251953 49.43707031 68.30191406 48.92773438 67.58007812 C48.39470703 66.81115234 47.86167969 66.04222656 47.3125 65.25 C42.34570141 58.22172514 37.24662957 51.32188116 32 44.5 C26.4026479 37.20820229 20.94817959 29.83525343 15.6105957 22.3515625 C11.66050091 16.83974438 7.5355596 11.49084244 3.2487793 6.23657227 C0 2.20779298 0 2.20779298 0 0 Z " fill="#E4A32D" transform="translate(78,86)"/>
<path d="M0 0 C-1.49135817 3.87244706 -3.52451341 5.27014794 -7 7.4375 C-12.34444124 10.8750344 -17.49794032 14.4966847 -22.625 18.25 C-30.78614739 24.19224163 -39.11828419 29.82535144 -47.55078125 35.37304688 C-50.25673828 37.17054465 -52.94156702 38.99718399 -55.625 40.828125 C-56.57141357 41.47015869 -57.51782715 42.11219238 -58.49291992 42.77368164 C-60.33579785 44.02455359 -62.17469414 45.28131718 -64.0090332 46.54467773 C-64.84781006 47.11130127 -65.68658691 47.6779248 -66.55078125 48.26171875 C-67.28981689 48.76662842 -68.02885254 49.27153809 -68.7902832 49.79174805 C-71.2001332 51.10943091 -73.29573895 51.59975391 -76 52 C-77.03307771 50.23628182 -78.05112049 48.46374967 -79.0625 46.6875 C-79.63097656 45.70136719 -80.19945312 44.71523437 -80.78515625 43.69921875 C-82 41 -82 41 -81 38 C-78.86474609 36.640625 -78.86474609 36.640625 -76.0234375 35.25 C-74.4470752 34.46991577 -74.4470752 34.46991577 -72.83886719 33.67407227 C-71.12425293 32.84540649 -71.12425293 32.84540649 -69.375 32 C-68.19583008 31.42113037 -67.01666016 30.84226074 -65.80175781 30.24584961 C-62.20784579 28.48328988 -58.60450912 26.74078544 -55 25 C-53.5145166 24.27901123 -53.5145166 24.27901123 -51.99902344 23.54345703 C-45.3523832 20.32024393 -38.68098225 17.15131204 -32 14 C-30.70424016 13.38742089 -29.40850584 12.77478782 -28.11279297 12.16210938 C-24.65690282 10.52890943 -21.19859445 8.90092355 -17.73864746 7.27633667 C-16.37701003 6.63650159 -15.01592028 5.99549961 -13.65539551 5.353302 C-11.75508955 4.45700136 -9.85250498 3.56573219 -7.94921875 2.67578125 C-6.84924561 2.15927002 -5.74927246 1.64275879 -4.6159668 1.1105957 C-2 0 -2 0 0 0 Z " fill="#CB8F26" transform="translate(372,136)"/>
<path d="M0 0 C0.66 0 1.32 0 2 0 C0.68353483 7.96849287 -1.67574131 15.38039024 -4.3125 23 C-9.40773625 37.92855695 -14.07582589 52.98108494 -18.70825195 68.05859375 C-19.11404228 69.37905701 -19.11404228 69.37905701 -19.5280304 70.72619629 C-20.03523013 72.37816923 -20.54154702 74.03041361 -21.04679871 75.6829834 C-22.31088032 79.8079782 -23.61506108 83.91345487 -25 88 C-28.66172475 87.37321829 -31.8818995 86.35548154 -35.3125 84.9375 C-36.63701172 84.39416016 -36.63701172 84.39416016 -37.98828125 83.83984375 C-38.98408203 83.42412109 -38.98408203 83.42412109 -40 83 C-39.37446929 78.31226104 -37.42079438 74.43785398 -35.30639648 70.2722168 C-34.92586121 69.51070816 -34.54532593 68.74919952 -34.15325928 67.96461487 C-32.8982072 65.45659518 -31.63471624 62.95292978 -30.37109375 60.44921875 C-29.49760987 58.70784813 -28.62465665 56.96621123 -27.75221252 55.22431946 C-25.45757586 50.64648552 -23.15575389 46.07230155 -20.85241699 41.49884033 C-18.50207874 36.82888388 -16.15855379 32.1555115 -13.81445312 27.48242188 C-9.21629732 18.31825849 -4.61054345 9.15793662 0 0 Z " fill="#DD9925" transform="translate(271,52)"/>
<path d="M0 0 C-0.60331258 3.20661739 -1.63154581 5.12704479 -3.66796875 7.66015625 C-4.22427979 8.36140625 -4.78059082 9.06265625 -5.35375977 9.78515625 C-5.95889404 10.53667969 -6.56402832 11.28820312 -7.1875 12.0625 C-8.47335268 13.6872224 -9.7571463 15.31357615 -11.0390625 16.94140625 C-11.6980957 17.77816895 -12.35712891 18.61493164 -13.03613281 19.47705078 C-21.41778468 30.24482681 -29.314001 41.40137464 -37.28808594 52.47216797 C-42.48124726 59.6806099 -47.73384379 66.84478174 -53 74 C-56.79793279 72.68302856 -59.35328268 71.08343619 -62.3125 68.375 C-63.35857422 67.42753906 -63.35857422 67.42753906 -64.42578125 66.4609375 C-64.94527344 65.97882813 -65.46476562 65.49671875 -66 65 C-64.36312397 60.82741081 -61.30669032 58.03574927 -58.1796875 54.94921875 C-57.60219757 54.37218704 -57.02470764 53.79515533 -56.42971802 53.20063782 C-55.20648633 51.98042338 -53.98082895 50.76263649 -52.75292969 49.54711914 C-50.89728973 47.7095724 -49.04961463 45.86431462 -47.203125 44.01757812 C-41.94568035 38.77636949 -36.68266758 33.62621894 -31.02978516 28.80932617 C-26.23203051 24.53266516 -21.77435463 19.87488044 -17.25 15.3125 C-16.21247659 14.26994637 -15.17471757 13.22762717 -14.13671875 12.18554688 C-12.23584429 10.27658237 -10.33661666 8.36603415 -8.43847656 6.4543457 C-7.6337793 5.64441162 -6.82908203 4.83447754 -6 4 C-5.27522461 3.23324951 -4.55044922 2.46649902 -3.80371094 1.67651367 C-2 0 -2 0 0 0 Z " fill="#E09E27" transform="translate(330,86)"/>
<path d="M0 0 C0.66 0 1.32 0 2 0 C2.43231934 0.93046143 2.86463867 1.86092285 3.31005859 2.81958008 C12.87476918 23.64122516 12.87476918 23.64122516 23.25 44.0625 C27.20044281 51.39408939 30.92613154 58.81988214 34.5625 66.3125 C35.08811523 67.38185791 35.61373047 68.45121582 36.15527344 69.55297852 C36.64157227 70.56287842 37.12787109 71.57277832 37.62890625 72.61328125 C38.06275635 73.50829346 38.49660645 74.40330566 38.94360352 75.32543945 C40.08504018 78.21530278 40.59406258 80.92687625 41 84 C39.25531628 84.70088156 37.50398839 85.38524009 35.75 86.0625 C34.77546875 86.44535156 33.8009375 86.82820313 32.796875 87.22265625 C29.83441673 88.04602105 28.7735012 88.21071051 26 87 C24.91015625 84.95092773 24.91015625 84.95092773 24.0625 82.18359375 C23.56508301 80.60130981 23.56508301 80.60130981 23.05761719 78.98706055 C22.53409668 77.23002808 22.53409668 77.23002808 22 75.4375 C21.62262695 74.21909424 21.24525391 73.00068848 20.85644531 71.74536133 C19.78492358 68.27845686 18.73766369 64.804654 17.69702148 61.32836914 C16.9649601 58.88295079 16.2298098 56.43847592 15.49414062 53.99414062 C11.26172365 39.92218146 11.26172365 39.92218146 9.25 33.12475586 C8.76597355 31.49322338 8.28160483 29.86179239 7.796875 28.23046875 C7.56391724 27.44570663 7.33095947 26.66094452 7.09094238 25.85240173 C5.19036139 19.50753917 3.08781013 13.24551925 0.89160156 6.99731445 C0 4 0 4 0 0 Z " fill="#C88D25" transform="translate(136,52)"/>
<path d="M0 0 C3.90877112 0.61848206 7.03768769 1.81724395 10.5859375 3.5546875 C11.6702002 4.08167236 12.75446289 4.60865723 13.87158203 5.15161133 C15.60577393 6.00468872 15.60577393 6.00468872 17.375 6.875 C18.58546184 7.46507916 19.79624087 8.05450805 21.00732422 8.64331055 C23.47793889 9.84486464 25.94737428 11.04879178 28.41601562 12.25439453 C33.64035618 14.79894732 38.881306 17.30813564 44.125 19.8125 C45.5318103 20.48647827 45.5318103 20.48647827 46.96704102 21.17407227 C51.25200394 23.22425583 55.54273583 25.25882653 59.85546875 27.25 C67.50701246 30.78684104 74.90854701 34.4001386 82 39 C81.34215037 42.29680965 80.10579427 44.84117922 78.4375 47.75 C77.98246094 48.54921875 77.52742188 49.3484375 77.05859375 50.171875 C76.70925781 50.77515625 76.35992187 51.3784375 76 52 C71.76745596 51.09113624 68.49469305 49.04460712 64.875 46.75 C64.17415283 46.30889893 63.47330566 45.86779785 62.7512207 45.41333008 C56.64207763 41.5141501 50.7759102 37.31439631 44.9296875 33.03466797 C37.18175112 27.36774783 29.2599327 21.97056148 21.31933594 16.57861328 C17.53657068 14.00394379 13.76842048 11.40810015 10 8.8125 C6.67783001 6.52443092 3.35648791 4.23765861 0 2 C0 1.34 0 0.68 0 0 Z " fill="#DDA22E" transform="translate(37,136)"/>
<path d="M0 0 C0 0.66 0 1.32 0 2 C-0.99334602 2.25523437 -0.99334602 2.25523437 -2.00675964 2.515625 C-9.7255084 4.49950745 -17.44334269 6.48692783 -25.16044235 8.47721481 C-26.50732216 8.82457978 -27.85421791 9.17188295 -29.20112991 9.51912308 C-45.96251196 13.84078611 -62.71986686 18.16506721 -79.3659668 22.91601562 C-80.36797119 23.20025391 -81.36997559 23.48449219 -82.40234375 23.77734375 C-83.64745728 24.13687134 -83.64745728 24.13687134 -84.91772461 24.50366211 C-87 25 -87 25 -90 25 C-90.33 23.824375 -90.66 22.64875 -91 21.4375 C-91.185625 20.77621094 -91.37125 20.11492187 -91.5625 19.43359375 C-92.13082462 16.27228806 -92.02618492 13.20601644 -92 10 C-72.78151333 7.29598744 -53.548197 4.74762303 -34.26794434 2.52182007 C-32.35404383 2.30064217 -30.44038205 2.07738766 -28.52697754 1.85195923 C-9.19091792 -0.41825183 -9.19091792 -0.41825183 0 0 Z " fill="#C78C24" transform="translate(397,196)"/>
<path d="M0 0 C5.84765233 -0.07438803 11.49710061 0.13453519 17.30200195 0.81030273 C18.07717667 0.89647858 18.85235138 0.98265442 19.65101624 1.07144165 C22.18067973 1.35395177 24.70946647 1.64359288 27.23828125 1.93359375 C29.0094149 2.13333942 30.78058976 2.33272005 32.55180359 2.53175354 C36.24786792 2.94815268 39.94352975 3.3679096 43.63891602 3.7902832 C48.37390846 4.33135519 53.10964255 4.8655756 57.84566975 5.39750576 C61.49615254 5.80799474 65.14631497 6.22127406 68.79637718 6.6354847 C70.54300519 6.83350889 72.28971028 7.03085452 74.0364933 7.22750664 C76.47297085 7.50239107 78.90901538 7.78083326 81.3449707 8.06030273 C82.06450928 8.14086411 82.78404785 8.22142548 83.52539062 8.3044281 C86.782616 8.68172602 89.80834815 9.20208704 93 10 C92.01 14.62 91.02 19.24 90 24 C79.9040482 23.4910477 70.46018178 20.67977345 60.75 18.0625 C58.90205871 17.57044378 57.05391099 17.0791622 55.20556641 16.58862305 C51.38966838 15.57500004 47.57483425 14.55750613 43.76074219 13.53710938 C35.48271336 11.32482622 27.19419324 9.1525076 18.90637207 6.9772644 C14.88234674 5.92051387 10.85912516 4.86071564 6.8359375 3.80078125 C6.13804108 3.61694885 5.44014465 3.43311646 4.72109985 3.24371338 C3.1473903 2.82917871 1.57369349 2.41459566 0 2 C0 1.34 0 0.68 0 0 Z " fill="#F5B02D" transform="translate(12,196)"/>
<path d="M0 0 C0.495 7.425 0.495 7.425 1 15 C-19.19947035 17.16422897 -39.42416352 18.74896173 -59.6875 20.1875 C-60.95489014 20.27785522 -62.22228027 20.36821045 -63.52807617 20.46130371 C-67.16830318 20.71994089 -70.80870314 20.97592863 -74.44921875 21.23046875 C-76.10832527 21.34744362 -76.10832527 21.34744362 -77.8009491 21.46678162 C-78.82271744 21.53728226 -79.84448578 21.6077829 -80.8972168 21.68041992 C-81.78966599 21.74243088 -82.68211517 21.80444183 -83.60160828 21.86833191 C-85.73164966 21.98526797 -87.86675122 22 -90 22 C-90 21.01 -90 20.02 -90 19 C-89.17697639 18.81993408 -89.17697639 18.81993408 -88.33732605 18.63623047 C-82.43277124 17.34405473 -76.52866063 16.04986273 -70.62484741 14.75430298 C-68.33861879 14.25260535 -66.05234376 13.75111916 -63.76602173 13.24984741 C-52.18724527 10.70989712 -40.61096744 8.16317177 -29.0625 5.48828125 C-28.24759598 5.29982635 -27.43269196 5.11137146 -26.59309387 4.91720581 C-22.8435396 4.04866051 -19.09583992 3.17297874 -15.3503418 2.28710938 C-14.02916467 1.97903561 -12.70795883 1.6710849 -11.38671875 1.36328125 C-10.26483154 1.09813721 -9.14294434 0.83299316 -7.98706055 0.55981445 C-5 0 -5 0 0 0 Z " fill="#EAA62B" transform="translate(102,240)"/>
<path d="M0 0 C0.66 0 1.32 0 2 0 C3.7518185 17.07837199 5.04029113 34.18647313 6.28710938 51.30737305 C6.57092099 55.20413851 6.85883014 59.10058923 7.1478672 62.99697018 C7.37251153 66.03121906 7.59505752 69.06561904 7.81696701 72.10006905 C7.92237914 73.53814956 8.02842822 74.97618355 8.13515091 76.4141674 C8.28314976 78.41259228 8.42801603 80.4112484 8.57275391 82.40991211 C8.65554596 83.54126083 8.73833801 84.67260956 8.82363892 85.83824158 C8.99375193 88.8879861 9 91.94551476 9 95 C4.05 95 -0.9 95 -6 95 C-6.12053423 85.056148 -5.65524424 75.24051441 -4.94140625 65.33203125 C-4.83134912 63.76033443 -4.72165071 62.18861246 -4.61228943 60.61686707 C-4.38383938 57.34667251 -4.15247878 54.07670272 -3.91870117 50.80688477 C-3.62095194 46.6417605 -3.3284583 42.47628912 -3.03788853 38.31065845 C-2.75763304 34.29681485 -2.47455018 30.28317193 -2.19140625 26.26953125 C-2.13870638 25.51862528 -2.08600651 24.76771931 -2.03170967 23.99405861 C-1.46777014 15.98390922 -0.87400732 7.98339446 0 0 Z " fill="#ECA126" transform="translate(203,37)"/>
<path d="M0 0 C8.79731652 0.67820173 17.25052857 2.75278332 25.8203125 4.74609375 C27.44968826 5.12140831 29.07915566 5.49632519 30.70870972 5.87086487 C34.11007926 6.65372938 37.51065926 7.4399054 40.91064453 8.22875977 C45.25473348 9.23660144 49.60018963 10.23838619 53.94618416 11.23797512 C57.30610932 12.01106235 60.66555605 12.78621073 64.02483749 13.56208992 C65.62663252 13.93202126 67.22851173 14.30158831 68.83047867 14.67077446 C71.07249126 15.18803223 73.31391209 15.70777954 75.55517578 16.22827148 C76.82708771 16.52281723 78.09899963 16.81736298 79.40945435 17.12083435 C82.97295284 17.99337735 86.47998571 18.96851946 90 20 C90 20.66 90 21.32 90 22 C75.74972625 21.37937327 61.53840934 20.43374194 47.31811523 19.32543945 C43.93828348 19.06256094 40.55804799 18.80542766 37.17773438 18.54882812 C24.42658953 17.56984879 11.70870337 16.42971717 -1 15 C-0.67 10.05 -0.34 5.1 0 0 Z " fill="#EDA428" transform="translate(307,240)"/>
<path d="M0 0 C3.91703377 1.30567792 4.31757187 2.80094602 6.25 6.375 C6.79140625 7.35210937 7.3328125 8.32921875 7.890625 9.3359375 C9 12 9 12 8 15 C5.96679688 16.23242188 5.96679688 16.23242188 3.21875 17.46875 C2.16856689 17.94844238 1.11838379 18.42813477 0.03637695 18.92236328 C-1.13062744 19.4429834 -2.29763184 19.96360352 -3.5 20.5 C-4.72421531 21.05472224 -5.9479164 21.61058047 -7.17114258 22.16748047 C-9.17868427 23.08126462 -11.18661033 23.99411229 -13.19624329 24.90328979 C-19.04105049 27.5501206 -24.85681909 30.25674585 -30.66796875 32.9765625 C-32.50907118 33.83668145 -34.35021707 34.69670738 -36.19140625 35.55664062 C-38.92604679 36.83391962 -41.66019405 38.1121874 -44.39257812 39.39428711 C-46.97180256 40.60347649 -49.55392221 41.80627572 -52.13671875 43.0078125 C-52.89832809 43.36670563 -53.65993744 43.72559875 -54.44462585 44.09536743 C-59.52374663 46.44926938 -64.6556855 48.33622208 -70 50 C-68.73779767 46.213393 -67.52750573 45.79427284 -64.1875 43.6875 C-58.42423211 39.96195897 -52.7951732 36.08073464 -47.1875 32.125 C-40.73869408 27.58997137 -34.25694461 23.12190737 -27.67944336 18.77587891 C-20.00481303 13.6984781 -12.43101223 8.47260134 -4.84667969 3.26171875 C-3.23879823 2.16315564 -1.62028281 1.08018854 0 0 Z " fill="#E1A12A" transform="translate(108,273)"/>
<path d="M0 0 C3.55945921 1.32214135 6.64535502 2.89992476 9.84375 4.94140625 C11.20814209 5.80958984 11.20814209 5.80958984 12.60009766 6.6953125 C13.55706543 7.31148438 14.5140332 7.92765625 15.5 8.5625 C16.49177246 9.19800781 17.48354492 9.83351563 18.50537109 10.48828125 C25.16304182 14.77217728 31.73411027 19.14380165 38.19287109 23.72314453 C40.36858373 25.26042865 42.55319421 26.78466427 44.73828125 28.30859375 C49.02598382 31.29933338 53.30615828 34.30061297 57.58349609 37.30615234 C59.84928843 38.89435877 62.12111801 40.47351289 64.39453125 42.05078125 C65.6799042 42.95021123 66.96507503 43.84993016 68.25 44.75 C68.84031006 45.15597412 69.43062012 45.56194824 70.03881836 45.98022461 C71.39586062 46.93683495 72.70434437 47.9617594 74 49 C74 49.66 74 50.32 74 51 C69.21293391 49.53750426 64.80777357 47.55159524 60.33984375 45.32421875 C58.8219306 44.57683969 57.30394245 43.82961291 55.78588867 43.08251953 C54.99459564 42.69147034 54.20330261 42.30042114 53.38803101 41.89752197 C38.33827235 34.46625968 23.18390951 27.36661525 7.82421875 20.6015625 C3.14006923 18.53358832 -1.44633972 16.34061466 -6 14 C-5.21868337 10.62370806 -4.02334658 7.8403677 -2.4375 4.75 C-1.75494141 3.41195313 -1.75494141 3.41195313 -1.05859375 2.046875 C-0.70925781 1.37140625 -0.35992187 0.6959375 0 0 Z " fill="#CF922A" transform="translate(299,273)"/>
<path d="M0 0 C0.66 0 1.32 0 2 0 C5.24718958 32.7129535 5.24718958 32.7129535 5 49 C4.67 49 4.34 49 4 49 C3.01 45.7 2.02 42.4 1 39 C-0.18179193 48.91328376 -1.16098493 58.77272878 -1.71484375 68.7421875 C-2.21195173 76.84797169 -3.14787144 84.92546139 -4 93 C-0.37 93 3.26 93 7 93 C7 86.73 7 80.46 7 74 C7.33 74 7.66 74 8 74 C8.33 80.93 8.66 87.86 9 95 C4.05 95 -0.9 95 -6 95 C-6.12053423 85.056148 -5.65524424 75.24051441 -4.94140625 65.33203125 C-4.83134912 63.76033443 -4.72165071 62.18861246 -4.61228943 60.61686707 C-4.38383938 57.34667251 -4.15247878 54.07670272 -3.91870117 50.80688477 C-3.62095194 46.6417605 -3.3284583 42.47628912 -3.03788853 38.31065845 C-2.75763304 34.29681485 -2.47455018 30.28317193 -2.19140625 26.26953125 C-2.13870638 25.51862528 -2.08600651 24.76771931 -2.03170967 23.99405861 C-1.46777014 15.98390922 -0.87400732 7.98339446 0 0 Z " fill="#DEA039" transform="translate(203,37)"/>
<path d="M0 0 C1.65 0 3.3 0 5 0 C3.68 0.33 2.36 0.66 1 1 C1.020625 2.216875 1.04125 3.43375 1.0625 4.6875 C1.11743442 7.92863051 0.70390422 10.8352023 0 14 C1.23234375 14.06058594 2.4646875 14.12117187 3.734375 14.18359375 C18.78501477 14.94077241 18.78501477 14.94077241 25.4375 15.5625 C29.47956129 15.90977569 33.50624518 16.14835161 37.5625 16.25 C38.53316406 16.27578125 39.50382812 16.3015625 40.50390625 16.328125 C43.39034546 15.94868698 44.23780927 15.2546548 46 13 C45.38511719 12.87882813 44.77023437 12.75765625 44.13671875 12.6328125 C42.92435547 12.38144531 42.92435547 12.38144531 41.6875 12.125 C40.88699219 11.96257812 40.08648437 11.80015625 39.26171875 11.6328125 C37 11 37 11 34 9 C31.95294775 8.40260055 29.88766892 7.86590017 27.8125 7.375 C26.72582031 7.11460937 25.63914062 6.85421875 24.51953125 6.5859375 C23.68808594 6.39257812 22.85664063 6.19921875 22 6 C25.53173939 4.79068884 27.97204269 5.21515909 31.57543945 6.0480957 C32.69372635 6.30198563 33.81201324 6.55587555 34.96418762 6.81745911 C36.16838852 7.10070541 37.37258942 7.38395172 38.61328125 7.67578125 C39.85619431 7.96100143 41.09910736 8.24622162 42.37968445 8.54008484 C45.6846108 9.30051347 48.98746897 10.06895996 52.28967285 10.84106445 C54.97074593 11.46590932 57.65365115 12.08264926 60.33669758 12.69895649 C83.1584334 17.94286744 83.1584334 17.94286744 90 20 C90 20.66 90 21.32 90 22 C75.74972625 21.37937327 61.53840934 20.43374194 47.31811523 19.32543945 C43.93828348 19.06256094 40.55804799 18.80542766 37.17773438 18.54882812 C24.42658953 17.56984879 11.70870337 16.42971717 -1 15 C-0.67 10.05 -0.34 5.1 0 0 Z " fill="#CF9934" transform="translate(307,240)"/>
<path d="M0 0 C1.859375 2.10791016 1.859375 2.10791016 3.75 5.0390625 C4.4409375 6.09480469 5.131875 7.15054687 5.84375 8.23828125 C6.56286051 9.36695789 7.28160763 10.49586614 8 11.625 C9.06734375 13.26662109 9.06734375 13.26662109 10.15625 14.94140625 C11.49072399 16.99540073 12.81947546 19.05313253 14.140625 21.11572266 C15.47105012 23.17948872 16.84031512 25.21842019 18.234375 27.23974609 C20 30 20 30 20 32 C16.99303666 30.65408846 14.92067701 29.16745506 12.625 26.8125 C12.01785156 26.18988281 11.41070312 25.56726563 10.78515625 24.92578125 C9.14833835 23.16002365 7.59813157 21.35363702 6.0625 19.5 C2.75474751 15.55375373 -1.0927486 12.33363364 -5 9 C-7.5 6.75 -7.5 6.75 -9 5 C-9 4.01 -9 3.02 -9 2 C-5.62902617 0.50178941 -3.79557881 0 0 0 Z " fill="#C99734" transform="translate(254,324)"/>
<path d="M0 0 C0.66 0 1.32 0 2 0 C0.62274099 8.70165606 -2.14986298 16.88338456 -5 25.1875 C-5.68098891 27.18760222 -6.36018224 29.18829678 -7.0378418 31.18952942 C-7.65088746 32.99749288 -8.26865405 34.80385359 -8.88671875 36.61010742 C-10.01798723 40.05477034 -11.02666859 43.50806245 -12 47 C-13.55490287 43.04471583 -12.34824138 40.33586898 -11 36.4375 C-9.18179518 31.74511309 -9.18179518 31.74511309 -10 27 C-16.15344129 38.59277953 -22.18888103 50.23167249 -28 62 C-28.66 62 -29.32 62 -30 62 C-28.70363441 57.85852451 -27.14955411 54.05451764 -25.20263672 50.17822266 C-24.64220673 49.05751373 -24.08177673 47.93680481 -23.50436401 46.78213501 C-22.89622486 45.5760673 -22.28799731 44.37004415 -21.6796875 43.1640625 C-21.05442879 41.91727968 -20.42952574 40.67031844 -19.80496216 39.42318726 C-18.16782686 36.15651781 -16.52589923 32.89228063 -14.88293457 29.62854004 C-13.20419054 26.29158645 -11.53002775 22.95233636 -9.85546875 19.61328125 C-6.57477167 13.07327488 -3.28900429 6.53583328 0 0 Z " fill="#7B5820" transform="translate(271,52)"/>
<path d="M0 0 C3.12290635 0.48578543 5.99580359 0.9986012 9 2 C8.4281156 5.51973222 7.28016603 7.03020165 4.6484375 9.390625 C3.96136719 10.01839844 3.27429688 10.64617187 2.56640625 11.29296875 C1.48166016 12.26169922 1.48166016 12.26169922 0.375 13.25 C-4.56908784 17.7024106 -9.17030049 22.15612548 -13.37255859 27.32714844 C-15.11842963 29.12173414 -16.7130741 30.01767125 -19 31 C-17.52626639 26.87554644 -15.49551893 23.4745548 -13.0859375 19.82421875 C-12.71143463 19.25419632 -12.33693176 18.68417389 -11.95108032 18.09687805 C-10.76322813 16.29096033 -9.56923307 14.48920283 -8.375 12.6875 C-7.5646938 11.45795264 -6.75479365 10.22813757 -5.9453125 8.99804688 C-3.96823034 5.99558617 -1.98562091 2.99682261 0 0 Z " fill="#CE8A20" transform="translate(155,324)"/>
<path d="M0 0 C0 2.97 0 5.94 0 9 C-0.33 9 -0.66 9 -1 9 C-1 6.36 -1 3.72 -1 1 C-2.27302979 1.30703857 -3.54605957 1.61407715 -4.85766602 1.93041992 C-9.70112433 3.09786986 -14.54539823 4.26190627 -19.38989258 5.42504883 C-21.46400055 5.92350509 -23.53790284 6.42281818 -25.61157227 6.9230957 C-40.36851607 10.48239743 -55.15639217 13.81964219 -70 17 C-61.75 17.33 -53.5 17.66 -45 18 C-45 18.33 -45 18.66 -45 19 C-59.85 19.99 -74.7 20.98 -90 22 C-90 21.01 -90 20.02 -90 19 C-89.17697639 18.81993408 -89.17697639 18.81993408 -88.33732605 18.63623047 C-82.43277124 17.34405473 -76.52866063 16.04986273 -70.62484741 14.75430298 C-68.33861879 14.25260535 -66.05234376 13.75111916 -63.76602173 13.24984741 C-52.18724527 10.70989712 -40.61096744 8.16317177 -29.0625 5.48828125 C-28.24759598 5.29982635 -27.43269196 5.11137146 -26.59309387 4.91720581 C-22.8435396 4.04866051 -19.09583992 3.17297874 -15.3503418 2.28710938 C-14.02916467 1.97903561 -12.70795883 1.6710849 -11.38671875 1.36328125 C-10.26483154 1.09813721 -9.14294434 0.83299316 -7.98706055 0.55981445 C-5.23632641 0.04429068 -2.78856107 -0.11309794 0 0 Z " fill="#60461C" transform="translate(102,240)"/>
<path d="M0 0 C6.07434748 -0.08432934 11.94118041 0.18324522 17.97265625 0.875 C19.18543495 1.00817627 19.18543495 1.00817627 20.42271423 1.14404297 C22.96984066 1.42479384 25.51615333 1.71227176 28.0625 2 C29.80398681 2.19315644 31.54552295 2.38586877 33.28710938 2.578125 C37.52532629 3.04695806 41.76282792 3.52181985 46 4 C46 4.33 46 4.66 46 5 C42.87502063 5.02956676 39.75007823 5.04698543 36.625 5.0625 C35.75488281 5.07087891 34.88476562 5.07925781 33.98828125 5.08789062 C32.68310547 5.09272461 32.68310547 5.09272461 31.3515625 5.09765625 C30.17327881 5.10551147 30.17327881 5.10551147 28.97119141 5.11352539 C24.62725732 4.94754927 20.32079543 4.46531897 16 4 C24.31899225 6.18396552 32.63846198 8.36609921 40.95853329 10.54594994 C44.82260487 11.55839325 48.6865142 12.57144689 52.55004883 13.5859375 C56.28440521 14.56648362 60.01919279 15.54537145 63.75427437 16.5231514 C65.1732358 16.89491396 66.59204564 17.26725564 68.0106945 17.6402092 C75.31377899 19.55974138 82.61218896 21.43084456 90 23 C90 23.33 90 23.66 90 24 C79.9040482 23.4910477 70.46018178 20.67977345 60.75 18.0625 C58.90205871 17.57044378 57.05391099 17.0791622 55.20556641 16.58862305 C51.38966838 15.57500004 47.57483425 14.55750613 43.76074219 13.53710938 C35.48271336 11.32482622 27.19419324 9.1525076 18.90637207 6.9772644 C14.88234674 5.92051387 10.85912516 4.86071564 6.8359375 3.80078125 C6.13804108 3.61694885 5.44014465 3.43311646 4.72109985 3.24371338 C3.1473903 2.82917871 1.57369349 2.41459566 0 2 C0 1.34 0 0.68 0 0 Z " fill="#553F18" transform="translate(12,196)"/>
<path d="M0 0 C9.08542273 -0.524159 18.91324118 0.9256353 26 7 C27.60482225 8.73450485 29.13150366 10.50793953 30.62890625 12.3359375 C33.10033691 15.33545164 35.9421475 17.94477716 38.75 20.625 C41 23 41 23 41 25 C38.53199953 23.84826645 36.95216435 22.95216435 35 21 C34.21238281 20.70738281 33.42476562 20.41476563 32.61328125 20.11328125 C29.69223351 18.86888872 28.30852048 17.52285518 26.1875 15.1875 C18.58916436 7.30297469 10.78759052 4.11595764 0 3 C0 2.01 0 1.02 0 0 Z " fill="#B4802A" transform="translate(210,166)"/>
<path d="M0 0 C3.006818 1.33999498 4.99762609 2.79845291 7.25 5.1875 C10.46682472 8.51572991 13.86185108 11.53596317 17.3984375 14.51953125 C19 16 19 16 20 18 C16.05625844 16.33149396 13.2375849 13.7452946 10 11 C17.31902387 21.01340884 24.70609251 30.96710715 32.25 40.8125 C37.63661936 47.84359829 42.90029815 54.93469106 47.984375 62.1875 C52.04943662 68.198631 52.04943662 68.198631 58 72 C56.02 72.99 56.02 72.99 54 74 C47.68538772 65.61521263 41.40328824 57.20837132 35.1875 48.75 C25.25113338 35.23726083 15.21694216 21.79740824 4.953125 8.53125 C4.30859375 7.6959375 3.6640625 6.860625 3 6 C2.41734375 5.2678125 1.8346875 4.535625 1.234375 3.78125 C0 2 0 2 0 0 Z " fill="#4C3615" transform="translate(78,86)"/>
<path d="M0 0 C0.66 0.33 1.32 0.66 2 1 C1.92483154 1.9394043 1.84966309 2.87880859 1.7722168 3.84667969 C-0.58899593 33.54059007 -2.36307869 63.25821005 -4 93 C-0.37 93 3.26 93 7 93 C7 86.73 7 80.46 7 74 C7.33 74 7.66 74 8 74 C8.33 80.93 8.66 87.86 9 95 C4.05 95 -0.9 95 -6 95 C-6.12053423 85.056148 -5.65524424 75.24051441 -4.94140625 65.33203125 C-4.83134912 63.76033443 -4.72165071 62.18861246 -4.61228943 60.61686707 C-4.38383938 57.34667251 -4.15247878 54.07670272 -3.91870117 50.80688477 C-3.62095194 46.6417605 -3.3284583 42.47628912 -3.03788853 38.31065845 C-2.75763304 34.29681485 -2.47455018 30.28317193 -2.19140625 26.26953125 C-2.13870638 25.51862528 -2.08600651 24.76771931 -2.03170967 23.99405861 C-1.46777014 15.98390922 -0.87400732 7.98339446 0 0 Z " fill="#3C2C15" transform="translate(203,37)"/>
<path d="M0 0 C4.15246829 0.63045685 7.45673442 2.02482529 11.21875 3.87109375 C12.39824219 4.44537109 13.57773437 5.01964844 14.79296875 5.61132812 C16.02879169 6.21975591 17.26446751 6.82848261 18.5 7.4375 C20.92584879 8.62624861 23.3534288 9.81137007 25.78125 10.99609375 C26.85439453 11.52388428 27.92753906 12.0516748 29.03320312 12.59545898 C31.65847123 13.83831345 34.29006744 14.95745309 37 16 C33.86650268 17.04449911 33.01031744 16.93423645 30 16 C30 16.66 30 17.32 30 18 C29.01 18 28.02 18 27 18 C27.33 18.66 27.66 19.32 28 20 C23.99774564 18.18537586 20.44157852 15.70167634 16.8125 13.25 C15.47410457 12.34874113 14.13556322 11.44769892 12.796875 10.546875 C11.82524414 9.89235352 11.82524414 9.89235352 10.83398438 9.22460938 C7.73398341 7.15464068 4.59020183 5.15106709 1.44140625 3.15625 C0.96574219 2.7746875 0.49007812 2.393125 0 2 C0 1.34 0 0.68 0 0 Z " fill="#805B21" transform="translate(37,136)"/>
<path d="M0 0 C-0.5590888 3.24271506 -1.4132178 4.93057424 -4 7 C-4.66 7 -5.32 7 -6 7 C-8.08031108 8.91579571 -10.06449181 10.85827867 -12.0390625 12.87890625 C-12.63874847 13.48379379 -13.23843445 14.08868134 -13.85629272 14.7118988 C-15.78397221 16.65744251 -17.70490029 18.60947743 -19.625 20.5625 C-22.13462103 23.10884875 -24.64738379 25.65203249 -27.1640625 28.19140625 C-27.77292297 28.8058107 -28.38178345 29.42021515 -29.00909424 30.05323792 C-32.56141764 33.6173399 -36.19183172 37.00838178 -40.03271484 40.26196289 C-44.56287625 44.26422388 -48.74659787 48.64545709 -53 52.9375 C-53.97502386 53.9175531 -54.9502828 54.8973724 -55.92578125 55.87695312 C-58.28616618 58.24902313 -60.64416905 60.6234086 -63 63 C-62.690625 63.61875 -62.38125 64.2375 -62.0625 64.875 C-61.375 66.25 -60.6875 67.625 -60 69 C-63.47899158 67.60840337 -64.48052501 66.36748512 -66 63 C-62.01974213 58.99482718 -58.03606133 54.99310045 -54.04931641 50.99438477 C-52.69650645 49.63657873 -51.34459934 48.27787249 -49.99365234 46.91821289 C-37.1068571 33.95045847 -37.1068571 33.95045847 -30.99023438 28.76538086 C-26.19757056 24.51418458 -21.75972829 19.86013118 -17.25 15.3125 C-16.21247659 14.26994637 -15.17471757 13.22762717 -14.13671875 12.18554688 C-12.23584429 10.27658237 -10.33661666 8.36603415 -8.43847656 6.4543457 C-7.6337793 5.64441162 -6.82908203 4.83447754 -6 4 C-5.27522461 3.23324951 -4.55044922 2.46649902 -3.80371094 1.67651367 C-2 0 -2 0 0 0 Z " fill="#543C16" transform="translate(330,86)"/>
<path d="M0 0 C0.66 0.33 1.32 0.66 2 1 C-0.33333333 3.33333333 -2.66666667 5.66666667 -5 8 C-2.525 8.495 -2.525 8.495 0 9 C-3.01870006 11.43289557 -6.04956742 13.0865412 -9.5703125 14.69921875 C-10.63121094 15.18583984 -11.69210938 15.67246094 -12.78515625 16.17382812 C-13.88730469 16.67333984 -14.98945312 17.17285156 -16.125 17.6875 C-17.23488281 18.19861328 -18.34476563 18.70972656 -19.48828125 19.23632812 C-27.73921479 23 -27.73921479 23 -30 23 C-28.72378278 19.17134835 -27.3789133 18.69727539 -24 16.5625 C-18.48789427 13.0009341 -13.10204999 9.29795746 -7.75 5.5 C-6.986875 4.95931885 -6.22375 4.4186377 -5.4375 3.86157227 C-3.62403836 2.57572703 -1.81151283 1.2885886 0 0 Z " fill="#B8862A" transform="translate(68,300)"/>
<path d="M0 0 C1.65 0 3.3 0 5 0 C3.68 0.33 2.36 0.66 1 1 C1.020625 2.216875 1.04125 3.43375 1.0625 4.6875 C1.11754386 7.93508762 0.66461016 10.8241293 0 14 C1.0612207 14.04825928 2.12244141 14.09651855 3.21582031 14.14624023 C18.60269934 14.88277276 33.94463123 16.11959733 49.29882812 17.34594727 C52.7355049 17.61957863 56.17242588 17.8899708 59.609375 18.16015625 C60.65107849 18.24451431 61.69278198 18.32887238 62.76605225 18.41578674 C67.86293524 18.8158203 72.88744852 19.09625206 78 19 C78 18.67 78 18.34 78 18 C79.6254308 18.14095064 81.25034051 18.28792087 82.875 18.4375 C83.77992188 18.51871094 84.68484375 18.59992188 85.6171875 18.68359375 C88 19 88 19 90 20 C90 20.66 90 21.32 90 22 C75.74972625 21.37937327 61.53840934 20.43374194 47.31811523 19.32543945 C43.93828348 19.06256094 40.55804799 18.80542766 37.17773438 18.54882812 C24.42658953 17.56984879 11.70870337 16.42971717 -1 15 C-0.67 10.05 -0.34 5.1 0 0 Z " fill="#503813" transform="translate(307,240)"/>
<path d="M0 0 C0.94374527 3.41663141 0.97835233 6.08192659 0.625 9.625 C0.48964844 11.06746094 0.48964844 11.06746094 0.3515625 12.5390625 C0 15 0 15 -1 17 C-1.23172827 19.54615009 -1.41894529 22.07396225 -1.5625 24.625 C-1.60568359 25.33140625 -1.64886719 26.0378125 -1.69335938 26.765625 C-1.79944751 28.51018537 -1.90022889 30.25506697 -2 32 C-1.34 32 -0.68 32 0 32 C-0.04125 33.299375 -0.0825 34.59875 -0.125 35.9375 C-0.11728602 40.8667351 0.68913998 45.26265144 2 50 C2.27457031 51.02673828 2.27457031 51.02673828 2.5546875 52.07421875 C5.04738325 60.39859161 9.1798978 68.7698467 14 76 C13.67 76.99 13.34 77.98 13 79 C8.43849219 72.05375255 5.04640542 65.09070755 2.1875 57.3125 C1.8980249 56.52963623 1.6085498 55.74677246 1.31030273 54.94018555 C-2.28611953 44.85560168 -3.34105944 35.85192445 -3.3125 25.125 C-3.32861328 23.92230469 -3.34472656 22.71960938 -3.36132812 21.48046875 C-3.36546824 13.85438288 -2.44331028 7.23101513 0 0 Z " fill="#EFC44C" transform="translate(111,208)"/>
<path d="M0 0 C0.66 0.33 1.32 0.66 2 1 C-0.77161497 5.42278984 -3.83515861 9.14552041 -7.5625 12.8125 C-8.04396484 13.30169922 -8.52542969 13.79089844 -9.02148438 14.29492188 C-11.33743791 16.59813288 -12.8569708 17.9523236 -16 19 C-17.5743866 21.11982016 -18.98821119 23.20036848 -20.375 25.4375 C-20.77130615 26.06479004 -21.1676123 26.69208008 -21.57592773 27.33837891 C-24.72671216 32.39484334 -27.51581602 37.58223193 -30 43 C-31 40 -31 40 -29.734375 36.91796875 C-29.0881521 35.66649385 -28.42547055 34.42343406 -27.75 33.1875 C-27.39301025 32.5275 -27.03602051 31.8675 -26.66821289 31.1875 C-19.99199128 19.26820955 -10.90758971 8.26332553 0 0 Z " fill="#815C20" transform="translate(144,157)"/>
<path d="M0 0 C-1.52041591 4.19522169 -4.19000456 5.724465 -7.875 8.0625 C-11.33966472 10.28005568 -14.74792713 12.47846524 -18 15 C-18.66 14.67 -19.32 14.34 -20 14 C-19.67 13.01 -19.34 12.02 -19 11 C-20.98 11.33 -22.96 11.66 -25 12 C-22.29097471 9.86038522 -19.64056808 8.2158051 -16.5234375 6.73828125 C-15.27046875 6.14370117 -15.27046875 6.14370117 -13.9921875 5.53710938 C-12.69667969 4.93092773 -12.69667969 4.93092773 -11.375 4.3125 C-10.50359375 3.89677734 -9.6321875 3.48105469 -8.734375 3.05273438 C-2.25796644 0 -2.25796644 0 0 0 Z " fill="#9B7227" transform="translate(372,136)"/>
<path d="M0 0 C6.07434748 -0.08432934 11.94118041 0.18324522 17.97265625 0.875 C19.18543495 1.00817627 19.18543495 1.00817627 20.42271423 1.14404297 C22.96984066 1.42479384 25.51615333 1.71227176 28.0625 2 C29.80398681 2.19315644 31.54552295 2.38586877 33.28710938 2.578125 C37.52532629 3.04695806 41.76282792 3.52181985 46 4 C46 4.33 46 4.66 46 5 C24.19690816 5.1921918 24.19690816 5.1921918 15 4 C14.37125977 3.91959473 13.74251953 3.83918945 13.09472656 3.75634766 C8.72637774 3.19522845 4.36232757 2.60636942 0 2 C0 1.34 0 0.68 0 0 Z " fill="#8F6926" transform="translate(12,196)"/>
<path d="M0 0 C0.66 0 1.32 0 2 0 C3.87979353 3.94631398 5.74923767 7.89730961 7.60913086 11.85302734 C8.24365608 13.19877329 8.88101929 14.54318484 9.52124023 15.88623047 C10.43958151 17.81396468 11.34769915 19.74622536 12.25390625 21.6796875 C12.80377197 22.84226074 13.3536377 24.00483398 13.92016602 25.20263672 C14.27651123 26.1257666 14.63285645 27.04889648 15 28 C14.67 28.66 14.34 29.32 14 30 C11 28 11 28 10.3125 25.375 C10.1578125 24.199375 10.1578125 24.199375 10 23 C9.34 23.66 8.68 24.32 8 25 C7.16112944 22.56427941 6.32873471 20.12666783 5.5 17.6875 C5.26152344 16.99720703 5.02304688 16.30691406 4.77734375 15.59570312 C3.76791737 12.61068511 3 10.17341086 3 7 C2.34 7 1.68 7 1 7 C0.67 4.69 0.34 2.38 0 0 Z " fill="#AA7827" transform="translate(136,52)"/>
<path d="M0 0 C2.2189885 1.97940619 3.71802676 4.32553859 5 7 C4.8125 9.9375 4.8125 9.9375 4 12 C-0.96249922 10.73052346 -3.76325276 8.99833482 -7 5 C-7 3.68 -7 2.36 -7 1 C-4 0 -4 0 0 0 Z " fill="#CC8921" transform="translate(254,324)"/>
<path d="M0 0 C-0.99 0.33 -1.98 0.66 -3 1 C-3 1.66 -3 2.32 -3 3 C-6.07909767 3.86996586 -9.16378631 4.71815852 -12.25 5.5625 C-13.12269531 5.80935547 -13.99539063 6.05621094 -14.89453125 6.31054688 C-15.73886719 6.53935547 -16.58320313 6.76816406 -17.453125 7.00390625 C-18.22817383 7.21861572 -19.00322266 7.4333252 -19.80175781 7.65454102 C-22.19024018 8.0298967 -23.720964 7.74681558 -26 7 C-25.01 6.34 -24.02 5.68 -23 5 C-23.33 4.01 -23.66 3.02 -24 2 C-20.93796326 1.66231828 -17.87530542 1.33063107 -14.8125 1 C-13.51602539 0.85691406 -13.51602539 0.85691406 -12.19335938 0.7109375 C-8.11207075 0.27309811 -4.11211498 -0.13621913 0 0 Z " fill="#8F6721" transform="translate(392,197)"/>
<path d="M0 0 C0.33 0 0.66 0 1 0 C2.67367174 16.00550154 4.2446059 31.883189 4 48 C3.67 48 3.34 48 3 48 C1.29615248 42.04550129 0.67153625 36.64648695 0.5859375 30.46875 C0.56657135 29.59222778 0.5472052 28.71570557 0.5272522 27.81262207 C0.46797379 25.04184378 0.42128013 22.27102275 0.375 19.5 C0.33677249 17.60935793 0.29771805 15.71873239 0.2578125 13.828125 C0.1623155 9.2188859 0.07809594 4.60956543 0 0 Z " fill="#A1712A" transform="translate(204,38)"/>
<path d="M0 0 C0.33 0 0.66 0 1 0 C1.33 6.93 1.66 13.86 2 21 C-2.95 21 -7.9 21 -13 21 C-13 16.71 -13 12.42 -13 8 C-12.34 8 -11.68 8 -11 8 C-11 11.63 -11 15.26 -11 19 C-7.37 19 -3.74 19 0 19 C0 12.73 0 6.46 0 0 Z " fill="#815C20" transform="translate(210,111)"/>
<path d="M0 0 C2.75111192 4.12666788 3.12649976 7.16381496 3.1328125 12.0625 C3.13474609 13.50496094 3.13474609 13.50496094 3.13671875 14.9765625 C3.13285156 15.97429687 3.12898437 16.97203125 3.125 18 C3.12886719 18.99773437 3.13273438 19.99546875 3.13671875 21.0234375 C3.13542969 21.98507812 3.13414062 22.94671875 3.1328125 23.9375 C3.13168457 24.81277344 3.13055664 25.68804687 3.12939453 26.58984375 C3 29 3 29 2 33 C-0.97 32.01 -3.94 31.02 -7 30 C-3 29 -3 29 1 31 C0.67 20.77 0.34 10.54 0 0 Z " fill="#9E7028" transform="translate(165,289)"/>
<path d="M0 0 C-0.33 1.65 -0.66 3.3 -1 5 C-7.6 5 -14.2 5 -21 5 C-20.67 4.34 -20.34 3.68 -20 3 C-13.47739598 0.93923525 -6.84558208 -0.47759875 0 0 Z " fill="#EFB336" transform="translate(52,253)"/>
<path d="M0 0 C3.40195976 1.45798275 5.40354539 3.40354539 8 6 C8.845625 6.495 9.69125 6.99 10.5625 7.5 C13.10278399 9.06325168 14.37983936 10.52712323 16 13 C14.68 13.33 13.36 13.66 12 14 C12.99 15.32 13.98 16.64 15 18 C14.67 18.66 14.34 19.32 14 20 C13.32453125 19.11957031 12.6490625 18.23914063 11.953125 17.33203125 C11.05210954 16.15883404 10.1510664 14.98565808 9.25 13.8125 C8.58484375 12.9452832 8.58484375 12.9452832 7.90625 12.06054688 C7.46796875 11.49013672 7.0296875 10.91972656 6.578125 10.33203125 C6.14564453 9.76822754 5.71316406 9.20442383 5.26757812 8.62353516 C4.09807203 7.12561229 2.88667568 5.66064843 1.671875 4.19921875 C0 2 0 2 0 0 Z " fill="#DEA437" transform="translate(88,97)"/>
<path d="M0 0 C0.66 0.33 1.32 0.66 2 1 C-0.3737945 2.75165497 -2.7489858 4.50136034 -5.125 6.25 C-5.79015625 6.74113281 -6.4553125 7.23226563 -7.140625 7.73828125 C-11.03062394 10.59857459 -14.95934217 13.35657899 -19 16 C-18.34 16.66 -17.68 17.32 -17 18 C-18.78953185 18.83790789 -20.58169695 19.67019396 -22.375 20.5 C-23.37273438 20.9640625 -24.37046875 21.428125 -25.3984375 21.90625 C-28 23 -28 23 -30 23 C-28.72378278 19.17134835 -27.3789133 18.69727539 -24 16.5625 C-18.48789427 13.0009341 -13.10204999 9.29795746 -7.75 5.5 C-6.986875 4.95931885 -6.22375 4.4186377 -5.4375 3.86157227 C-3.62403836 2.57572703 -1.81151283 1.2885886 0 0 Z " fill="#513C17" transform="translate(68,300)"/>
<path d="M0 0 C4.71370756 0.64985095 8.57686444 2.51561392 12.8125 4.5625 C13.50537109 4.89185547 14.19824219 5.22121094 14.91210938 5.56054688 C16.61044948 6.36872251 18.30555769 7.18368377 20 8 C18.68 8.33 17.36 8.66 16 9 C16.66 10.32 17.32 11.64 18 13 C14.18237194 11.63167453 11.15890947 9.87003864 7.875 7.5 C7.02679688 6.8915625 6.17859375 6.283125 5.3046875 5.65625 C4.54414062 5.1096875 3.78359375 4.563125 3 4 C2.01 3.34 1.02 2.68 0 2 C0 1.34 0 0.68 0 0 Z " fill="#805C25" transform="translate(37,136)"/>
<path d="M0 0 C0.33 0.99 0.66 1.98 1 3 C-0.07983398 4.90112305 -0.07983398 4.90112305 -1.74609375 7.01171875 C-2.33583984 7.76904297 -2.92558594 8.52636719 -3.53320312 9.30664062 C-4.16162109 10.09232422 -4.79003906 10.87800781 -5.4375 11.6875 C-6.06205078 12.48478516 -6.68660156 13.28207031 -7.33007812 14.10351562 C-8.87768695 16.07642153 -10.43448744 18.04129188 -12 20 C-14.06152344 16.23242188 -14.06152344 16.23242188 -13.5078125 14.140625 C-11.29532201 10.99957632 -8.62709844 8.41908851 -5.875 5.75 C-5.31167969 5.19570312 -4.74835938 4.64140625 -4.16796875 4.0703125 C-2.78313972 2.70895515 -1.39216796 1.35385141 0 0 Z " fill="#BA8126" transform="translate(325,91)"/>
<path d="M0 0 C0.33 0 0.66 0 1 0 C1 2.31 1 4.62 1 7 C0.34 7 -0.32 7 -1 7 C-1.268125 7.78375 -1.53625 8.5675 -1.8125 9.375 C-3 12 -3 12 -6 14 C-8.6875 14.125 -8.6875 14.125 -11 14 C-10.979375 14.969375 -10.95875 15.93875 -10.9375 16.9375 C-11 20 -11 20 -12 21 C-12.20839015 22.64107242 -12.36751725 24.28856293 -12.5 25.9375 C-12.89022298 30.78044597 -12.89022298 30.78044597 -14 33 C-14.66 33 -15.32 33 -16 33 C-15.11731708 18.69444925 -15.11731708 18.69444925 -12 13 C-8.5625 11.875 -8.5625 11.875 -5 11 C-2.54036774 7.67398981 -1.29777753 3.89333259 0 0 Z " fill="#5F4218" transform="translate(258,263)"/>
<path d="M0 0 C1.32 0.33 2.64 0.66 4 1 C3.01 1 2.02 1 1 1 C0.77441406 1.66644531 0.54882812 2.33289063 0.31640625 3.01953125 C-1.39334256 6.8905649 -3.67490985 10.20573841 -6.0625 13.6875 C-9.24202617 18.21745838 -9.24202617 18.21745838 -12 23 C-11.34 23.33 -10.68 23.66 -10 24 C-11.11878383 25.17262904 -12.24523051 26.33795138 -13.375 27.5 C-14.00148437 28.1496875 -14.62796875 28.799375 -15.2734375 29.46875 C-17 31 -17 31 -19 31 C-17.52626639 26.87554644 -15.49551893 23.4745548 -13.0859375 19.82421875 C-12.71143463 19.25419632 -12.33693176 18.68417389 -11.95108032 18.09687805 C-10.76322813 16.29096033 -9.56923307 14.48920283 -8.375 12.6875 C-7.5646938 11.45795264 -6.75479365 10.22813757 -5.9453125 8.99804688 C-3.96823034 5.99558617 -1.98562091 2.99682261 0 0 Z " fill="#4A3312" transform="translate(155,324)"/>
<path d="M0 0 C7.58451152 -0.30203807 14.53942531 0.6119861 22 2 C21.34 5.63 20.68 9.26 20 13 C19.67 13 19.34 13 19 13 C19 10.03 19 7.06 19 4 C18.04738281 3.95101562 17.09476563 3.90203125 16.11328125 3.8515625 C14.23189453 3.73941406 14.23189453 3.73941406 12.3125 3.625 C11.07113281 3.55539063 9.82976562 3.48578125 8.55078125 3.4140625 C5.30682228 3.03577906 2.93432815 2.38020024 0 1 C0 0.67 0 0.34 0 0 Z " fill="#AF8029" transform="translate(83,204)"/>
<path d="M0 0 C4.92385516 1.60622848 8.69913079 4.45335142 12.8125 7.5 C13.85180664 8.24830078 13.85180664 8.24830078 14.91210938 9.01171875 C15.56630859 9.49253906 16.22050781 9.97335937 16.89453125 10.46875 C17.49112549 10.90638672 18.08771973 11.34402344 18.70239258 11.79492188 C19.13060303 12.19259766 19.55881348 12.59027344 20 13 C20 13.66 20 14.32 20 15 C14.31497465 13.35433477 9.23318364 10.70967216 4 8 C4.99 7.34 5.98 6.68 7 6 C6.21625 5.7525 5.4325 5.505 4.625 5.25 C1.67682892 3.84610901 1.0975223 2.99324263 0 0 Z " fill="#815E23" transform="translate(353,309)"/>
<path d="M0 0 C1.40425252 0.05836865 2.80854989 0.11566869 4.21289062 0.171875 C7.62168185 0.31244371 11.02963414 0.46376764 14.4375 0.625 C14.4375 0.955 14.4375 1.285 14.4375 1.625 C1.42819108 2.68236038 -11.51665744 2.73645896 -24.5625 2.625 C-24.5625 2.295 -24.5625 1.965 -24.5625 1.625 C-16.33577873 -0.76193353 -8.45802517 -0.40376252 0 0 Z " fill="#936E29" transform="translate(42.5625,257.375)"/>
<path d="M0 0 C-4.62328538 2.09036528 -9.37710321 3.07325798 -14.3125 4.125 C-15.56643555 4.39763672 -15.56643555 4.39763672 -16.84570312 4.67578125 C-18.89629972 5.12105365 -20.94803962 5.5610552 -23 6 C-21.68 6.66 -20.36 7.32 -19 8 C-23.95 8.33 -28.9 8.66 -34 9 C-34 8.01 -34 7.02 -34 6 C-29.48124795 4.9760482 -24.96061659 3.96103888 -20.43798828 2.9543457 C-18.89902352 2.61045839 -17.3606059 2.26411305 -15.82275391 1.9152832 C-13.61499269 1.41494273 -11.40542891 0.92341107 -9.1953125 0.43359375 C-8.50567413 0.27531601 -7.81603577 0.11703827 -7.10549927 -0.04603577 C-2.22774341 -1.11387171 -2.22774341 -1.11387171 0 0 Z " fill="#513C18" transform="translate(46,253)"/>
<path d="M0 0 C0.99 0.33 1.98 0.66 3 1 C2.319375 1.66 1.63875 2.32 0.9375 3 C-2.05148481 5.95492231 -4.69410542 9.17310189 -7.3515625 12.42578125 C-9 14 -9 14 -12 14 C-10.54568161 9.87943123 -8.76698387 6.39943732 -6 3 C-3.25 2.625 -3.25 2.625 -1 3 C-0.67 2.01 -0.34 1.02 0 0 Z " fill="#BF8C2B" transform="translate(155,333)"/>
<path d="M0 0 C0.33 0 0.66 0 1 0 C1 1.98 1 3.96 1 6 C-9.39113779 7.30618118 -19.51074452 8.33358056 -30 8 C-30 7.67 -30 7.34 -30 7 C-19.95726488 4.7945366 -10.21548751 4.79569025 0 5 C0 3.35 0 1.7 0 0 Z " fill="#835F21" transform="translate(102,249)"/>
<path d="M0 0 C3.006818 1.33999498 4.99762609 2.79845291 7.25 5.1875 C10.46682472 8.51572991 13.86185108 11.53596317 17.3984375 14.51953125 C19 16 19 16 20 18 C17.51460515 16.93483078 15.99314225 15.99268507 14.125 14 C12.11000284 11.78337324 12.11000284 11.78337324 9.125 11.25 C4.62422079 9.44968831 2.41968261 6.11860869 0 2 C0 1.34 0 0.68 0 0 Z " fill="#735626" transform="translate(78,86)"/>
<path d="M0 0 C0.66 0 1.32 0 2 0 C3.02611949 1.65071396 4.02308143 3.31970006 5 5 C7.28150672 7.80003098 9.61426893 8.81041881 13 10 C13.33 9.01 13.66 8.02 14 7 C15.32 8.32 16.64 9.64 18 11 C17.67 11.66 17.34 12.32 17 13 C15.68 12.34 14.36 11.68 13 11 C13.33 12.32 13.66 13.64 14 15 C8.6583321 11.79499926 3.93245447 7.86067342 0 3 C0 2.01 0 1.02 0 0 Z " fill="#74511C" transform="translate(245,326)"/>
<path d="M0 0 C0.99 0.33 1.98 0.66 3 1 C3.6875 3.0625 3.6875 3.0625 4 5 C3.154375 4.9175 2.30875 4.835 1.4375 4.75 C-3.03479289 5.07525766 -5.20440885 6.6642516 -9 9 C-9.66 9 -10.32 9 -11 9 C-11.33 9.99 -11.66 10.98 -12 12 C-13.32 11.67 -14.64 11.34 -16 11 C-13.89605554 9.54134521 -11.7918536 8.08306434 -9.6875 6.625 C-8.79514648 6.00625 -8.79514648 6.00625 -7.88476562 5.375 C-5.26916598 3.56307623 -2.64757418 1.76504945 0 0 Z " fill="#8F611C" transform="translate(108,273)"/>
<path d="M0 0 C-0.5590888 3.24271506 -1.4132178 4.93057424 -4 7 C-4.66 7 -5.32 7 -6 7 C-7.59682344 8.31805577 -7.59682344 8.31805577 -9.2578125 10.0625 C-9.88300781 10.69414063 -10.50820313 11.32578125 -11.15234375 11.9765625 C-11.80332031 12.64429687 -12.45429688 13.31203125 -13.125 14 C-14.11306641 15.00160156 -14.11306641 15.00160156 -15.12109375 16.0234375 C-16.75194324 17.67792249 -18.3779585 19.33688616 -20 21 C-20.66 20.67 -21.32 20.34 -22 20 C-16.66666667 14.66666667 -11.33333333 9.33333333 -6 4 C-5.30100586 3.25975586 -4.60201172 2.51951172 -3.88183594 1.75683594 C-2 0 -2 0 0 0 Z " fill="#433013" transform="translate(330,86)"/>
<path d="M0 0 C1.6254308 0.14095064 3.25034051 0.28792087 4.875 0.4375 C5.77992188 0.51871094 6.68484375 0.59992188 7.6171875 0.68359375 C10 1 10 1 12 2 C12 2.66 12 3.32 12 4 C8.83308393 3.85929844 5.66653622 3.71148731 2.5 3.5625 C1.613125 3.52318359 0.72625 3.48386719 -0.1875 3.44335938 C-5.50615127 3.18915913 -10.7256256 2.73323663 -16 2 C-16 1.67 -16 1.34 -16 1 C-10.72 1 -5.44 1 0 1 C0 0.67 0 0.34 0 0 Z " fill="#61451A" transform="translate(385,258)"/>
<path d="M0 0 C2.88080957 1.17366316 4.34257199 2.35092741 6.5625 4.625 C8.7909084 7.34893236 8.7909084 7.34893236 12 7 C17.68181818 10.18181818 17.68181818 10.18181818 18.875 13.25 C18.91625 13.8275 18.9575 14.405 19 15 C16.53199953 13.84826645 14.95216435 12.95216435 13 11 C12.22269531 10.71253906 11.44539062 10.42507812 10.64453125 10.12890625 C7.61620436 8.83616405 5.96282887 7.29852864 3.6875 4.9375 C2.99011719 4.22464844 2.29273438 3.51179687 1.57421875 2.77734375 C0 1 0 1 0 0 Z " fill="#4B3518" transform="translate(232,176)"/>
<path d="M0 0 C-1.50139512 4.20390632 -4.17275043 5.89110738 -8 8 C-8.99 7.67 -9.98 7.34 -11 7 C-11.9590625 7.495 -11.9590625 7.495 -12.9375 8 C-15.4723486 9.2290175 -16.38161568 8.7871552 -19 8 C-16.21128823 6.66042079 -13.41856938 5.32941565 -10.625 4 C-9.8309375 3.6184375 -9.036875 3.236875 -8.21875 2.84375 C-7.45820313 2.4828125 -6.69765625 2.121875 -5.9140625 1.75 C-5.2123291 1.41484375 -4.5105957 1.0796875 -3.78759766 0.734375 C-2 0 -2 0 0 0 Z " fill="#5E451B" transform="translate(372,136)"/>
<path d="M0 0 C5.44238436 2.50349681 10.46310674 5.46187508 15.5 8.6875 C16.13566895 9.09218506 16.77133789 9.49687012 17.42626953 9.91381836 C18.9701772 10.91329986 20.48791007 11.95300515 22 13 C22 13.33 22 13.66 22 14 C20.35 14 18.7 14 17 14 C16.67 13.34 16.34 12.68 16 12 C15.01 11.67 14.02 11.34 13 11 C13 10.34 13 9.68 13 9 C12.236875 8.896875 11.47375 8.79375 10.6875 8.6875 C7.75657342 7.93772808 6.98482838 7.16526733 5 5 C4.01 4.67 3.02 4.34 2 4 C2 3.34 2 2.68 2 2 C1.34 2 0.68 2 0 2 C0 1.34 0 0.68 0 0 Z " fill="#8B6024" transform="translate(301,274)"/>
<path d="M0 0 C0.33 0 0.66 0 1 0 C1.66 9.24 2.32 18.48 3 28 C1.02 28.66 -0.96 29.32 -3 30 C-3 28.68 -3 27.36 -3 26 C-1.68 26 -0.36 26 1 26 C0.89171875 24.94425781 0.89171875 24.94425781 0.78125 23.8671875 C0.03165136 15.8922909 -0.10659683 8.00660658 0 0 Z " fill="#7E5A24" transform="translate(151,211)"/>
<path d="M0 0 C6.11485027 -0.09706112 11.93303301 0.22959149 18 1 C18 1.66 18 2.32 18 3 C13.77897638 4.13673517 10.47303491 3.79839993 6.1875 3.0625 C5.02605469 2.86785156 3.86460938 2.67320312 2.66796875 2.47265625 C1.78753906 2.31667969 0.90710937 2.16070312 0 2 C0 1.34 0 0.68 0 0 Z " fill="#806328" transform="translate(12,196)"/>
<path d="M0 0 C0.99 0 1.98 0 3 0 C2.35729017 5.9129304 0.80996216 11.34244531 -1 17 C-1.33 17 -1.66 17 -2 17 C-1.67 14.03 -1.34 11.06 -1 8 C-1.99 8.66 -2.98 9.32 -4 10 C-2.8905928 6.51329166 -1.73662334 3.22515763 0 0 Z " fill="#EBA530" transform="translate(260,78)"/>
<path d="M0 0 C0.93457031 -0.02578125 1.86914062 -0.0515625 2.83203125 -0.078125 C3.99798828 0.08429688 3.99798828 0.08429688 5.1875 0.25 C5.8475 1.24 6.5075 2.23 7.1875 3.25 C3.56776598 4.56626692 1.09182869 5.25 -2.8125 5.25 C-2.8125 4.59 -2.8125 3.93 -2.8125 3.25 C-1.4925 3.25 -0.1725 3.25 1.1875 3.25 C1.1875 2.59 1.1875 1.93 1.1875 1.25 C0.63578125 1.41371094 0.0840625 1.57742187 -0.484375 1.74609375 C-3.07864007 2.30760414 -5.41085411 2.34739008 -8.0625 2.3125 C-8.95453125 2.30347656 -9.8465625 2.29445312 -10.765625 2.28515625 C-11.44109375 2.27355469 -12.1165625 2.26195312 -12.8125 2.25 C-12.8125 1.92 -12.8125 1.59 -12.8125 1.25 C-8.53219548 0.48905697 -4.348894 0.11444458 0 0 Z " fill="#E2A534" transform="translate(364.8125,199.75)"/>
<path d="M0 0 C4.8333472 -0.08333357 9.23692563 0.04738513 14 1 C13.34 1.66 12.68 2.32 12 3 C13.32 3.66 14.64 4.32 16 5 C14 6 14 6 11.375 5.125 C10.26125 4.75375 9.1475 4.3825 8 4 C5.33576831 3.55915591 2.68841457 3.27811185 0 3 C0 2.01 0 1.02 0 0 Z " fill="#583E1C" transform="translate(210,166)"/>
<path d="M0 0 C5.98993047 -0.3152595 9.63560356 0.31780178 15 3 C13.02 3.99 13.02 3.99 11 5 C11.99 6.485 11.99 6.485 13 8 C10.84574113 7.03429775 9.23254484 6.25368528 7.625 4.5 C5.3606234 2.40980621 2.92348316 1.8445618 0 1 C0 0.67 0 0.34 0 0 Z " fill="#926829" transform="translate(219,168)"/>
<path d="M0 0 C5.94650633 0.64784186 11.67387483 1.71983435 17.5 3.0625 C18.73363281 3.3419043 18.73363281 3.3419043 19.9921875 3.62695312 C21.9955717 4.08120885 23.9979003 4.54011599 26 5 C26 5.33 26 5.66 26 6 C24.22950311 6.05410687 22.45853151 6.09284119 20.6875 6.125 C19.20830078 6.15980469 19.20830078 6.15980469 17.69921875 6.1953125 C15 6 15 6 12 4 C9.95294775 3.40260055 7.88766892 2.86590017 5.8125 2.375 C4.72582031 2.11460937 3.63914062 1.85421875 2.51953125 1.5859375 C1.68808594 1.39257812 0.85664063 1.19921875 0 1 C0 0.67 0 0.34 0 0 Z " fill="#855D22" transform="translate(329,245)"/>
<path d="M0 0 C16.70842825 0.96355353 16.70842825 0.96355353 25 2 C25 2.33 25 2.66 25 3 C22.14557247 3.05437005 19.29219924 3.09384974 16.4375 3.125 C15.63763672 3.14175781 14.83777344 3.15851563 14.01367188 3.17578125 C8.93499665 3.21723982 4.81188094 2.64056075 0 1 C0 0.67 0 0.34 0 0 Z " fill="#866224" transform="translate(58,201)"/>
<path d="M0 0 C0.33 0.66 0.66 1.32 1 2 C0.54625 3.216875 0.0925 4.43375 -0.375 5.6875 C-2.73096373 12.2497734 -2.73628646 19.09798011 -3 26 C-3.33 26 -3.66 26 -4 26 C-4.02894547 22.54168414 -4.04678 19.08339928 -4.0625 15.625 C-4.07087891 14.64015625 -4.07925781 13.6553125 -4.08789062 12.640625 C-4.09111328 11.69960937 -4.09433594 10.75859375 -4.09765625 9.7890625 C-4.10289307 8.91975098 -4.10812988 8.05043945 -4.11352539 7.15478516 C-4 5 -4 5 -3 3 C-2.34 3 -1.68 3 -1 3 C-0.67 2.01 -0.34 1.02 0 0 Z " fill="#876531" transform="translate(154,185)"/>
<path d="M0 0 C-5.18818694 3.45879129 -11.79624667 4.60524423 -18 4 C-18.66 3.34 -19.32 2.68 -20 2 C-17.60468244 1.66254646 -15.20885732 1.3299171 -12.8125 1 C-11.80219727 0.85691406 -11.80219727 0.85691406 -10.77148438 0.7109375 C-7.15335423 0.21675387 -3.65203599 -0.11346131 0 0 Z " fill="#DAA13A" transform="translate(392,197)"/>
<path d="M0 0 C1.9375 0.8125 1.9375 0.8125 3.9375 3.8125 C2.6175 4.1425 1.2975 4.4725 -0.0625 4.8125 C0.9275 6.1325 1.9175 7.4525 2.9375 8.8125 C2.6075 9.4725 2.2775 10.1325 1.9375 10.8125 C-0.3725 7.8425 -2.6825 4.8725 -5.0625 1.8125 C-2.0625 -0.1875 -2.0625 -0.1875 0 0 Z " fill="#D49F3C" transform="translate(100.0625,106.1875)"/>
<path d="M0 0 C-3.7559214 3.42931954 -8.23466745 4.56429083 -13 6 C-10.90647594 -0.28057217 -6.00140524 -1.71468721 0 0 Z " fill="#5E461F" transform="translate(51,317)"/>
<path d="M0 0 C0.66 0 1.32 0 2 0 C3.38232443 1.62626404 4.71937515 3.2925002 6 5 C6.66 4.67 7.32 4.34 8 4 C12 9.75 12 9.75 12 12 C8.87142986 10.6118265 6.71810826 8.98898122 4.3125 6.5625 C3.71050781 5.96566406 3.10851562 5.36882812 2.48828125 4.75390625 C1 3 1 3 0 0 Z " fill="#4A371C" transform="translate(262,344)"/>
<path d="M0 0 C0.33 0.99 0.66 1.98 1 3 C-0.43359375 5.26171875 -0.43359375 5.26171875 -2.4375 7.6875 C-3.09621094 8.49574219 -3.75492187 9.30398437 -4.43359375 10.13671875 C-4.95050781 10.75160156 -5.46742188 11.36648437 -6 12 C-6.66 10.68 -7.32 9.36 -8 8 C-5.36 5.36 -2.72 2.72 0 0 Z " fill="#9A6E28" transform="translate(325,91)"/>
<path d="M0 0 C0.66 0 1.32 0 2 0 C6.59225513 9.41002278 6.59225513 9.41002278 6 14 C5.34 13.67 4.68 13.34 4 13 C3.375 9.9375 3.375 9.9375 3 7 C2.34 7 1.68 7 1 7 C0.67 4.69 0.34 2.38 0 0 Z " fill="#7A5C2E" transform="translate(136,52)"/>
<path d="M0 0 C1.32 0.66 2.64 1.32 4 2 C2.88121617 3.17262904 1.75476949 4.33795138 0.625 5.5 C-0.00148437 6.1496875 -0.62796875 6.799375 -1.2734375 7.46875 C-3 9 -3 9 -5 9 C-3.7508258 5.54074837 -2.32472205 2.85306797 0 0 Z " fill="#58401B" transform="translate(141,346)"/>
<path d="M0 0 C4.3177458 0.50797009 8.03302114 1.19682779 12 3 C8.86650268 4.04449911 8.01031744 3.93423645 5 3 C5 3.66 5 4.32 5 5 C2.525 4.01 2.525 4.01 0 3 C0 2.01 0 1.02 0 0 Z " fill="#BB8628" transform="translate(62,149)"/>
<path d="M0 0 C1.32 0.33 2.64 0.66 4 1 C0.4541332 3.954889 -3.63781033 6.45934985 -8 8 C-8.99 7.67 -9.98 7.34 -11 7 C-10.030625 6.54625 -9.06125 6.0925 -8.0625 5.625 C-4.92920418 4.34213779 -4.92920418 4.34213779 -4 2 C-2.68 2 -1.36 2 0 2 C0 1.34 0 0.68 0 0 Z " fill="#856423" transform="translate(103,290)"/>
<path d="M0 0 C0.33 0 0.66 0 1 0 C1 2.64 1 5.28 1 8 C0.34 8 -0.32 8 -1 8 C-1.66 11.63 -2.32 15.26 -3 19 C-3.33 19 -3.66 19 -4 19 C-3.59060025 12.23784552 -2.43046191 6.32837252 0 0 Z " fill="#5E4D20" transform="translate(112,200)"/>
<path d="M0 0 C1.75094232 0.06037732 3.50091527 0.14926737 5.25 0.25 C6.71179687 0.31960937 6.71179687 0.31960937 8.203125 0.390625 C11.57817054 1.12597012 12.81141609 2.39454297 15 5 C12.68547078 4.5520266 10.37339961 4.09133539 8.0625 3.625 C6.77472656 3.36976563 5.48695312 3.11453125 4.16015625 2.8515625 C2.59587891 2.43003906 2.59587891 2.43003906 1 2 C0.67 1.34 0.34 0.68 0 0 Z " fill="#EBB73A" transform="translate(27,199)"/>
<path d="M0 0 C1.32 0.33 2.64 0.66 4 1 C4 1.66 4 2.32 4 3 C0.02806853 6.12940055 -3.04230204 6.29162929 -8 6 C-5.64046906 3.64046906 -4.22104383 3.50858587 -1 3 C-0.67 2.01 -0.34 1.02 0 0 Z " fill="#75501B" transform="translate(172,171)"/>
<path d="M0 0 C1.18414294 3.55242882 0.69535532 4.69830562 -0.4375 8.1875 C-0.72496094 9.08855469 -1.01242188 9.98960938 -1.30859375 10.91796875 C-1.53675781 11.60503906 -1.76492187 12.29210937 -2 13 C-2.66 13 -3.32 13 -4 13 C-3.125 5.375 -3.125 5.375 -2 2 C-1.34 2 -0.68 2 0 2 C0 1.34 0 0.68 0 0 Z " fill="#A67727" transform="translate(253,112)"/>
<path d="M0 0 C1.05549308 3.34900813 1.00206103 6.14135398 0.6875 9.625 C0.60886719 10.58664063 0.53023438 11.54828125 0.44921875 12.5390625 C0 15 0 15 -2 17 C-3.80789124 10.91891127 -1.83657235 5.83137661 0 0 Z " fill="#E6BD43" transform="translate(111,208)"/>
<path d="M0 0 C1.890625 0.21484375 1.890625 0.21484375 4 1 C5.046875 3.06640625 5.046875 3.06640625 5.75 5.5625 C5.99234375 6.38878906 6.2346875 7.21507813 6.484375 8.06640625 C6.65453125 8.70449219 6.8246875 9.34257813 7 10 C5.046875 9.1640625 5.046875 9.1640625 3 8 C2.25 5.375 2.25 5.375 2 3 C1.34 3.66 0.68 4.32 0 5 C0 3.35 0 1.7 0 0 Z " fill="#B47F2B" transform="translate(144,72)"/>
<path d="M0 0 C2.33524782 2.25740623 4.18705073 4.2805761 6 7 C5.625 9.1875 5.625 9.1875 5 11 C1.87729874 8.48169253 1.05476902 7.2738451 0.25 3.25 C0.1675 2.1775 0.085 1.105 0 0 Z " fill="#A0762D" transform="translate(263,339)"/>
<path d="M0 0 C6.875 3.625 6.875 3.625 8 7 C4.08788267 5.84414715 1.1254959 4.64465038 -2 2 C-1.34 2 -0.68 2 0 2 C0 1.34 0 0.68 0 0 Z " fill="#543F22" transform="translate(365,317)"/>
<path d="M0 0 C-3.20010388 1.8133922 -6.13283843 2.52213974 -9.75 3.125 C-10.73484375 3.29257813 -11.7196875 3.46015625 -12.734375 3.6328125 C-13.48203125 3.75398437 -14.2296875 3.87515625 -15 4 C-15 3.01 -15 2.02 -15 1 C-13.43784452 0.83013455 -11.8752548 0.66426036 -10.3125 0.5 C-9.44238281 0.4071875 -8.57226562 0.314375 -7.67578125 0.21875 C-5.10276661 0.00840136 -2.58015636 -0.03719144 0 0 Z " fill="#896221" transform="translate(366,205)"/>
<path d="M0 0 C2.97 0.495 2.97 0.495 6 1 C6 1.66 6 2.32 6 3 C7.32 3.33 8.64 3.66 10 4 C10 4.99 10 5.98 10 7 C5.56541027 5.6062718 3.12621626 3.39417765 0 0 Z " fill="#866427" transform="translate(75,163)"/>
<path d="M0 0 C0.66 0 1.32 0 2 0 C1.34 3.3 0.68 6.6 0 10 C-0.99 10 -1.98 10 -3 10 C-3.33 9.34 -3.66 8.68 -4 8 C-3.22265625 6.0546875 -3.22265625 6.0546875 -2.0625 3.875 C-1.49208984 2.78832031 -1.49208984 2.78832031 -0.91015625 1.6796875 C-0.60980469 1.12539063 -0.30945313 0.57109375 0 0 Z " fill="#503816" transform="translate(271,52)"/>
<path d="M0 0 C1.32830615 3.98491845 0.23204404 5.40048548 -1.4375 9.1875 C-1.91058594 10.27417969 -2.38367188 11.36085938 -2.87109375 12.48046875 C-3.42990234 13.72763672 -3.42990234 13.72763672 -4 15 C-4.33 15 -4.66 15 -5 15 C-4.67 12.36 -4.34 9.72 -4 7 C-3.34 7 -2.68 7 -2 7 C-1.34 4.69 -0.68 2.38 0 0 Z " fill="#8C6A2B" transform="translate(297,262)"/>
<path d="M0 0 C4.23429756 1.31061591 8.07407404 2.94356259 12 5 C10.02 5.99 10.02 5.99 8 7 C8 6.34 8 5.68 8 5 C6.68 5 5.36 5 4 5 C4 4.34 4 3.68 4 3 C2.68 3 1.36 3 0 3 C0 2.01 0 1.02 0 0 Z " fill="#90692A" transform="translate(78,155)"/>
<path d="M0 0 C4.03174806 0.27489191 5.56894631 0.53491576 8.375 3.5625 C8.91125 4.366875 9.4475 5.17125 10 6 C6.62972148 6 5.93297304 5.50175992 3.3125 3.5625 C2.68988281 3.11003906 2.06726563 2.65757812 1.42578125 2.19140625 C0.95527344 1.79824219 0.48476562 1.40507812 0 1 C0 0.67 0 0.34 0 0 Z " fill="#846426" transform="translate(65,156)"/>
<path d="M0 0 C3.82097239 0.53069061 6.06171403 1.49701566 9 4 C8.67 4.66 8.34 5.32 8 6 C5.0280615 4.87548273 2.66559313 3.77706209 0 2 C0 1.34 0 0.68 0 0 Z " fill="#4E3B20" transform="translate(37,136)"/>
<path d="M0 0 C0.66 0 1.32 0 2 0 C2.125 7.75 2.125 7.75 1 10 C0.34 10 -0.32 10 -1 10 C-0.67 6.7 -0.34 3.4 0 0 Z " fill="#8B6426" transform="translate(243,286)"/>
<path d="M0 0 C2.9375 0.75 2.9375 0.75 6 2 C7.0625 3.9375 7.0625 3.9375 7 6 C5.5625 7.75 5.5625 7.75 4 9 C4 7.02 4 5.04 4 3 C3.01 3 2.02 3 1 3 C0.67 2.01 0.34 1.02 0 0 Z " fill="#926728" transform="translate(112,172)"/>
<path d="M0 0 C1.65 1.32 3.3 2.64 5 4 C4.34 5.32 3.68 6.64 3 8 C2.01 8 1.02 8 0 8 C0 5.36 0 2.72 0 0 Z " fill="#815A24" transform="translate(140,145)"/>
<path d="M0 0 C1.43836751 0.11458693 2.87570966 0.24209116 4.3125 0.375 C5.51326172 0.47941406 5.51326172 0.47941406 6.73828125 0.5859375 C9 1 9 1 12 3 C8.7 3 5.4 3 2 3 C2 2.34 2 1.68 2 1 C1.34 0.67 0.68 0.34 0 0 Z " fill="#916420" transform="translate(223,140)"/>
<path d="M0 0 C0.99 0.33 1.98 0.66 3 1 C2.19152271 2.16945792 1.37810888 3.33550461 0.5625 4.5 C0.11003906 5.1496875 -0.34242188 5.799375 -0.80859375 6.46875 C-1.20175781 6.9740625 -1.59492188 7.479375 -2 8 C-2.33 8 -2.66 8 -3 8 C-3.36923077 3.44615385 -3.36923077 3.44615385 -1.5 1.1875 C-1.005 0.795625 -0.51 0.40375 0 0 Z " fill="#A26F28" transform="translate(309,111)"/>
<path d="M0 0 C3.36720387 1.39332574 4.9859524 2.9789286 7 6 C6.34 6.66 5.68 7.32 5 8 C0 2.25 0 2.25 0 0 Z " fill="#493B21" transform="translate(78,86)"/>
<path d="M0 0 C0.33 0 0.66 0 1 0 C1.21278058 4.46839215 0.59138085 7.82262526 -1 12 C-1.33 12 -1.66 12 -2 12 C-3.01911045 8.10885099 -3.16782969 6.39403493 -1.5625 2.625 C-1.046875 1.75875 -0.53125 0.8925 0 0 Z " fill="#9F702E" transform="translate(269,59)"/>
<path d="M0 0 C0.99 0.33 1.98 0.66 3 1 C-1.75 5.875 -1.75 5.875 -4 7 C-4.33 5.68 -4.66 4.36 -5 3 C-3.68 3 -2.36 3 -1 3 C-0.67 2.01 -0.34 1.02 0 0 Z " fill="#AB7721" transform="translate(155,333)"/>
<path d="M0 0 C-7.28571429 3.42857143 -7.28571429 3.42857143 -12 3 C-10.10827237 0.58279247 -9.04144125 0.01036031 -6 -0.75 C-3 -1 -3 -1 0 0 Z " fill="#9A6F28" transform="translate(60,314)"/>
<path d="M0 0 C1.98 0 3.96 0 6 0 C6.33 1.32 6.66 2.64 7 4 C4.625 3.6875 4.625 3.6875 2 3 C1.34 2.01 0.68 1.02 0 0 Z " fill="#CF9533" transform="translate(229,172)"/>
<path d="M0 0 C1.32 0.33 2.64 0.66 4 1 C1.11912454 3.40072955 -1.56404834 5.47291037 -5 7 C-4.67 5.68 -4.34 4.36 -4 3 C-2.68 3 -1.36 3 0 3 C0 2.01 0 1.02 0 0 Z " fill="#926928" transform="translate(346,152)"/>
<path d="M0 0 C2.475 0.495 2.475 0.495 5 1 C5 1.66 5 2.32 5 3 C5.99 3 6.98 3 8 3 C8 3.66 8 4.32 8 5 C4.5625 4.1875 4.5625 4.1875 1 3 C0.67 2.01 0.34 1.02 0 0 Z " fill="#E4A333" transform="translate(53,145)"/>
<path d="M0 0 C0.66 0.33 1.32 0.66 2 1 C1.67 1.99 1.34 2.98 1 4 C-1.31 4.33 -3.62 4.66 -6 5 C-2.25 1.125 -2.25 1.125 0 0 Z " fill="#E9AC37" transform="translate(58,309)"/>
<path d="M0 0 C0.33 0 0.66 0 1 0 C1.33 4.95 1.66 9.9 2 15 C1.01 15 0.02 15 -1 15 C-0.67 10.05 -0.34 5.1 0 0 Z " fill="#D59029" transform="translate(257,223)"/>
<path d="M0 0 C1.32 0 2.64 0 4 0 C3.34 3.63 2.68 7.26 2 11 C1.67 11 1.34 11 1 11 C0.67 7.37 0.34 3.74 0 0 Z " fill="#835C22" transform="translate(101,206)"/>
<path d="M0 0 C-0.33 1.65 -0.66 3.3 -1 5 C-1.99 5.33 -2.98 5.66 -4 6 C-4 4.68 -4 3.36 -4 2 C-4.66 1.67 -5.32 1.34 -6 1 C-3.92446352 0.4465236 -2.15634036 0 0 0 Z " fill="#C9922F" transform="translate(353,147)"/>
<path d="M0 0 C1.98 0 3.96 0 6 0 C3.45394698 2.00047023 1.0335364 3.82572785 -2 5 C-2.99 4.67 -3.98 4.34 -5 4 C-4.360625 3.71125 -3.72125 3.4225 -3.0625 3.125 C-0.84793921 2.17176549 -0.84793921 2.17176549 0 0 Z " fill="#7D5921" transform="translate(73,304)"/>
<path d="M0 0 C1.98 0 3.96 0 6 0 C3.45394698 2.00047023 1.0335364 3.82572785 -2 5 C-2.99 4.67 -3.98 4.34 -5 4 C-4.360625 3.71125 -3.72125 3.4225 -3.0625 3.125 C-0.84793921 2.17176549 -0.84793921 2.17176549 0 0 Z " fill="#805E23" transform="translate(86,298)"/>
<path d="M0 0 C0.66 0.33 1.32 0.66 2 1 C0.625 2.5 0.625 2.5 -1 4 C-1.66 4 -2.32 4 -3 4 C-3.33 4.99 -3.66 5.98 -4 7 C-5.32 6.67 -6.64 6.34 -8 6 C-5.36 4.02 -2.72 2.04 0 0 Z " fill="#694F1D" transform="translate(100,278)"/>
<path d="M0 0 C0.66 0 1.32 0 2 0 C2 1.32 2 2.64 2 4 C0.02 4.66 -1.96 5.32 -4 6 C-4 4.68 -4 3.36 -4 2 C-2.68 2 -1.36 2 0 2 C0 1.34 0 0.68 0 0 Z " fill="#94661F" transform="translate(152,235)"/>
<path d="M0 0 C0.33 0.66 0.66 1.32 1 2 C0.22265625 3.9453125 0.22265625 3.9453125 -0.9375 6.125 C-1.31777344 6.84945312 -1.69804687 7.57390625 -2.08984375 8.3203125 C-2.39019531 8.87460938 -2.69054687 9.42890625 -3 10 C-3.33 10 -3.66 10 -4 10 C-3.67 7.69 -3.34 5.38 -3 3 C-2.34 3 -1.68 3 -1 3 C-0.67 2.01 -0.34 1.02 0 0 Z " fill="#A57428" transform="translate(154,185)"/>
<path d="M0 0 C5.75 1.875 5.75 1.875 8 3 C8 3.99 8 4.98 8 6 C4.08597051 4.73058503 2.20927127 3.48832306 0 0 Z " fill="#73511D" transform="translate(142,307)"/>
<path d="M0 0 C5.75 0.875 5.75 0.875 8 2 C8 2.99 8 3.98 8 5 C4.62496331 3.8141763 2.35277269 2.72426311 0 0 Z " fill="#7E5A1E" transform="translate(230,166)"/>
<path d="M0 0 C2.4375 0.75 2.4375 0.75 5 2 C5.8125 4.125 5.8125 4.125 6 6 C4.35 5.67 2.7 5.34 1 5 C0.67 3.35 0.34 1.7 0 0 Z " fill="#D19227" transform="translate(147,80)"/>
<path d="M0 0 C2.64 0 5.28 0 8 0 C8.33 0.99 8.66 1.98 9 3 C7.35 3 5.7 3 4 3 C4 2.34 4 1.68 4 1 C2.68 0.67 1.36 0.34 0 0 Z " fill="#9D6E20" transform="translate(93,205)"/>
</svg>
